<?xml version="1.0" standalone="no"?>
<svg version="1.1" id="Layer_1" xmlns:cc="http://creativecommons.org/ns#" xmlns:dc="http://purl.org/dc/elements/1.1/" xmlns:rdf="http://www.w3.org/1999/02/22-rdf-syntax-ns#" xmlns:svg="http://www.w3.org/2000/svg" xmlns="http://www.w3.org/2000/svg" xmlns:xlink="http://www.w3.org/1999/xlink" x="0px" y="0px" viewBox="0 0 595.2 595.2" enable-background="new 0 0 595.2 595.2" xml:space="preserve">
<path id="color_x5F_1" fill="#1f1f2e" d="M565.561,529.835h-29.339h-45.891l0,0v-9v-0.002L523.05,340.12
	c0.018-0.098,0.023-0.193,0.038-0.29c0.035-0.225,0.068-0.45,0.088-0.671c0.011-0.126,0.013-0.249,0.019-0.373
	c0.01-0.194,0.018-0.387,0.016-0.577c-0.001-0.125-0.008-0.247-0.015-0.37c-0.009-0.181-0.024-0.36-0.044-0.536
	c-0.014-0.122-0.03-0.243-0.049-0.363c-0.019-0.117-0.046-0.231-0.07-0.346c-0.056-0.269-0.125-0.531-0.208-0.786
	c-0.029-0.088-0.056-0.176-0.088-0.263c-0.098-0.266-0.212-0.523-0.34-0.773c-0.027-0.053-0.05-0.109-0.078-0.162
	c-0.307-0.562-0.686-1.079-1.146-1.538c-0.016-0.016-0.033-0.028-0.049-0.043c-0.029-0.028-0.061-0.052-0.09-0.08
	c-0.193-0.182-0.396-0.351-0.608-0.506c-0.062-0.046-0.125-0.088-0.189-0.132c-0.196-0.134-0.398-0.257-0.606-0.368
	c-0.055-0.029-0.109-0.061-0.164-0.089c-0.538-0.269-1.105-0.462-1.683-0.568c-0.016-0.003-0.031-0.004-0.047-0.007
	c-0.3-0.053-0.601-0.079-0.902-0.084c-0.052-0.001-0.104-0.003-0.156-0.002c-0.315,0.003-0.628,0.023-0.936,0.081l-99.261,18.343
	c-9.192-30.98-19.298-61.95-24.139-66.372c-0.008-0.007-0.017-0.013-0.025-0.02c-0.257-0.234-0.539-0.462-0.834-0.686
	c-0.083-0.063-0.169-0.126-0.255-0.189c-0.27-0.196-0.551-0.39-0.847-0.579c-0.05-0.032-0.097-0.065-0.149-0.097
	c-0.37-0.231-0.759-0.457-1.166-0.678c-0.032-0.018-0.066-0.035-0.099-0.052c-0.407-0.218-0.829-0.432-1.27-0.64
	c-0.013-0.006-0.025-0.012-0.038-0.018c-6.6-3.107-16.821-5.124-25.859-6.393c-0.099-0.014-0.197-0.027-0.295-0.041
	c-0.487-0.068-0.97-0.133-1.45-0.196c-0.134-0.018-0.269-0.036-0.403-0.054c-0.484-0.063-0.961-0.123-1.434-0.182
	c-0.273-0.034-0.542-0.067-0.811-0.099c-0.206-0.025-0.409-0.049-0.612-0.073c-6.873-0.814-12.35-1.173-13.793-1.259l-0.237-0.014
	c-1.734-0.61-13.69-4.815-14.469-5.01c-0.873-0.215-2.666,1.064-4.066,2.222l-7.09-1.817l-0.005-0.001
	c0.705-0.907,1.328-1.95,1.869-3.124c0.011-0.024,0.021-0.05,0.033-0.075c0.257-0.565,0.497-1.159,0.716-1.785
	c0.016-0.045,0.03-0.093,0.045-0.139c0.211-0.613,0.405-1.252,0.579-1.921c0.005-0.018,0.011-0.033,0.015-0.051
	c0.214-0.827,0.399-1.635,0.56-2.425c0-0.003,0.001-0.005,0.001-0.007c0.933-4.585,0.971-8.523,0.113-11.582
	c-0.138-0.491-0.295-0.961-0.479-1.406l0,0c1.255-3.264,13.265-35.05,8.826-44.7c-0.252-0.547-0.538-1.047-0.838-1.526
	c-2.724-4.343-7.284-6.001-10.818-6.829c-0.907-0.213-1.747-0.371-2.469-0.508c-0.833-0.157-1.742-0.332-2.171-0.499
	c-0.022-0.009-0.058-0.018-0.078-0.026v-0.001c0.009-0.015,0.015-0.037,0.024-0.052c0.063-0.111,0.117-0.241,0.171-0.374
	c0.213-0.527,0.347-1.213,0.37-1.999c0.003-0.118,0.004-0.237,0.002-0.359c-0.002-0.137-0.004-0.271-0.013-0.412
	c-0.015-0.22-0.041-0.446-0.074-0.675c-0.019-0.128-0.041-0.255-0.066-0.384c-0.038-0.198-0.085-0.397-0.138-0.598
	c-0.03-0.115-0.058-0.228-0.093-0.344c-0.088-0.285-0.191-0.572-0.312-0.858c-0.023-0.053-0.045-0.106-0.068-0.159
	c-0.131-0.293-0.283-0.583-0.453-0.871c-0.021-0.036-0.035-0.073-0.056-0.109c-0.273-0.45-0.613-0.904-1.014-1.351
	c-0.032-0.036-0.066-0.071-0.099-0.107c-0.217-0.234-0.452-0.465-0.71-0.691c-0.006-0.005-0.011-0.01-0.016-0.015
	c-1.439-1.255-3.547-2.342-6.612-2.885c-0.059-0.01-0.117-0.022-0.178-0.032c-0.276-0.046-0.557-0.089-0.848-0.126
	c-0.097-0.012-0.198-0.022-0.296-0.033c-0.448-0.052-0.914-0.092-1.399-0.121c-0.216-0.013-0.432-0.025-0.656-0.034
	c-0.232-0.008-0.468-0.015-0.708-0.018c-0.357-0.004-0.723-0.003-1.098,0.005c-0.204,0.004-0.409,0.01-0.618,0.018
	c-0.433,0.017-0.879,0.041-1.337,0.074c-0.18,0.013-0.362,0.027-0.546,0.043c-0.553,0.047-1.118,0.103-1.707,0.176
	c-0.028,0.003-0.052,0.005-0.08,0.008c-9.796,1.225-20.691,5.085-30.304,8.491c-9.368,3.32-17.459,6.186-21.499,5.492
	c-0.017-0.003-0.033-0.003-0.049-0.006c-0.494-0.083-0.982-0.133-1.467-0.167c-0.128-0.009-0.255-0.018-0.383-0.024
	c-0.471-0.02-0.937-0.02-1.394,0.005c-0.127,0.007-0.25,0.022-0.375,0.032c-0.372,0.031-0.738,0.078-1.098,0.138
	c-0.124,0.021-0.25,0.036-0.372,0.061c-0.412,0.082-0.812,0.19-1.203,0.311c-0.148,0.046-0.294,0.095-0.439,0.147
	c-0.377,0.133-0.747,0.279-1.101,0.449c-0.136,0.065-0.262,0.143-0.394,0.214c-0.267,0.143-0.528,0.292-0.778,0.456
	c-0.144,0.094-0.283,0.193-0.422,0.294c-0.244,0.179-0.477,0.369-0.701,0.569c-0.098,0.088-0.202,0.169-0.296,0.261
	c-0.3,0.293-0.58,0.606-0.836,0.938c-0.021,0.028-0.049,0.05-0.07,0.079c-0.06,0.079-0.101,0.167-0.158,0.248
	c-0.159,0.227-0.308,0.458-0.444,0.696c-0.087,0.153-0.168,0.308-0.245,0.465c-0.099,0.202-0.185,0.409-0.267,0.618
	c-0.073,0.185-0.149,0.368-0.209,0.558c-0.059,0.186-0.099,0.38-0.146,0.571c-0.068,0.278-0.131,0.558-0.172,0.845
	c-0.04,0.278-0.068,0.56-0.083,0.846c-0.008,0.154-0.017,0.308-0.018,0.465c-0.002,0.364,0.012,0.732,0.049,1.107
	c0.013,0.137,0.035,0.275,0.053,0.413c0.045,0.333,0.103,0.668,0.178,1.008c0.023,0.104,0.04,0.207,0.065,0.312
	c0.104,0.42,0.236,0.846,0.385,1.275c0.047,0.135,0.097,0.27,0.148,0.405c0.156,0.411,0.328,0.825,0.526,1.243
	c0.019,0.041,0.032,0.081,0.052,0.122c0.268,0.556,0.587,1.149,0.95,1.761c0.031,0.053,0.065,0.107,0.097,0.16
	c0.302,0.5,0.637,1.012,1.009,1.533c0.058,0.081,0.117,0.162,0.177,0.243c0.352,0.479,0.734,0.963,1.152,1.45
	c0.045,0.053,0.093,0.106,0.139,0.159c2.41,2.759,5.922,5.537,11.039,7.479c-0.034,0.14-0.095,0.403-0.175,0.757
	c-0.467,2.078-1.634,7.724-2.494,15.668c-0.006,0.01-0.012,0.021-0.019,0.032c-0.149,0.248-0.298,0.498-0.445,0.765
	c-0.266,0.482-0.15,1.053,0.224,1.421c0.005,0.005,0.01,0.008,0.015,0.012c-0.666,6.994-1.05,15.503-0.556,24.786
	c0.129,2.43,0.318,4.912,0.579,7.433c0.102,0.986,0.223,1.936,0.355,2.869c0.021,0.15,0.046,0.294,0.068,0.443
	c0.115,0.779,0.241,1.539,0.378,2.28c0.028,0.151,0.057,0.301,0.086,0.451c0.15,0.778,0.311,1.535,0.484,2.271
	c0.014,0.058,0.027,0.118,0.041,0.176c1.628,6.796,4.286,11.738,7.945,14.775c0.123,0.102,0.245,0.207,0.371,0.305
	c0.187,0.146,0.378,0.286,0.57,0.423c0.184,0.131,0.371,0.257,0.56,0.379c0.163,0.105,0.325,0.211,0.491,0.31
	c0.272,0.161,0.549,0.311,0.83,0.454c0.085,0.044,0.166,0.096,0.252,0.138c0.015,0.007,0.031,0.012,0.045,0.02
	c0.356,0.172,0.719,0.328,1.087,0.47c0.12,0.046,0.245,0.084,0.366,0.128c0.269,0.096,0.539,0.189,0.815,0.269
	c0.128,0.037,0.259,0.07,0.389,0.104c0.283,0.074,0.569,0.144,0.858,0.202c0.117,0.024,0.234,0.046,0.352,0.067
	c0.326,0.058,0.656,0.108,0.99,0.147c0.084,0.01,0.167,0.021,0.251,0.03c1.311,0.133,2.681,0.118,4.106-0.046
	c0.144-0.017,0.292-0.043,0.438-0.063c0.791-0.107,1.597-0.255,2.42-0.452c0.078-0.019,0.154-0.032,0.232-0.051
	c0.336-0.083,0.678-0.185,1.019-0.284c0.232-0.067,0.462-0.13,0.695-0.203c0.31-0.097,0.624-0.207,0.938-0.317
	c0.274-0.096,0.549-0.193,0.827-0.298c0.291-0.11,0.585-0.227,0.879-0.347c0.313-0.128,0.629-0.262,0.945-0.402
	c0.268-0.118,0.537-0.237,0.808-0.364c0.362-0.168,0.727-0.348,1.093-0.531c0.234-0.117,0.467-0.231,0.703-0.354
	c0.448-0.234,0.901-0.484,1.355-0.739c0.159-0.09,0.317-0.172,0.477-0.264c0.627-0.361,1.259-0.739,1.897-1.141
	c0.463-0.292,0.916-0.583,1.359-0.874l13.142,5.982c-2.912,1.194-9.94,4.837-18.23,14.542c-0.05,0.059-0.102,0.125-0.152,0.184
	c-0.466,0.549-0.937,1.118-1.41,1.706c-0.062,0.077-0.123,0.146-0.185,0.224c-4.694,5.873-13.089,16.892-21.349,27.832
	c-5.009,6.634-9.958,13.227-14.012,18.64c-4.513,6.025-7.914,10.585-9.004,12.047l-15.551-12.615l-0.001-0.001v-4.536
	c0-0.082-0.025-0.16-0.056-0.234c-0.013-0.031-0.03-0.056-0.049-0.084c-0.03-0.047-0.066-0.089-0.109-0.126
	c-0.014-0.012-0.02-0.03-0.035-0.04c-0.012-0.008-0.027-0.008-0.039-0.016c-0.049-0.03-0.102-0.049-0.157-0.064
	c-0.029-0.008-0.056-0.02-0.086-0.023c-0.073-0.008-0.147,0-0.219,0.02c-0.012,0.003-0.025-0.001-0.036,0.003l-3.936,1.333
	l-33.726-27.427l-0.142-0.354c-1.219-3.036-4.175-10.275-6.874-15.946c-0.013-0.027-0.026-0.054-0.039-0.081
	c-0.118-0.249-0.237-0.494-0.354-0.736c-0.048-0.098-0.095-0.195-0.142-0.292c-0.086-0.175-0.171-0.349-0.256-0.52
	c-0.065-0.131-0.129-0.26-0.194-0.388c-0.067-0.133-0.133-0.266-0.2-0.396c-0.077-0.151-0.153-0.3-0.229-0.447
	c-0.054-0.105-0.108-0.209-0.162-0.312c-0.081-0.156-0.162-0.309-0.242-0.459c-0.049-0.091-0.097-0.18-0.145-0.27
	c-0.081-0.149-0.161-0.296-0.24-0.438c-0.048-0.086-0.095-0.169-0.142-0.253c-0.076-0.135-0.152-0.269-0.227-0.397
	c-0.049-0.084-0.096-0.163-0.144-0.244c-0.071-0.119-0.141-0.238-0.21-0.349c-0.05-0.082-0.099-0.158-0.148-0.235
	c-0.063-0.099-0.126-0.199-0.187-0.292c-0.055-0.083-0.108-0.158-0.161-0.236c-0.053-0.077-0.106-0.156-0.157-0.227
	c-0.061-0.085-0.12-0.159-0.178-0.234c-0.04-0.051-0.081-0.107-0.119-0.154c-0.074-0.09-0.144-0.166-0.213-0.24
	c-0.021-0.023-0.044-0.051-0.065-0.072c-0.09-0.091-0.175-0.169-0.256-0.23c-0.038-0.029-0.083-0.066-0.122-0.097
	c-0.153-0.118-0.31-0.242-0.479-0.383c-0.045-0.037-0.095-0.081-0.14-0.12c-0.184-0.155-0.374-0.32-0.573-0.497
	c-0.031-0.028-0.064-0.059-0.096-0.087c-0.223-0.201-0.453-0.414-0.691-0.64c-0.025-0.024-0.051-0.049-0.077-0.073
	c-0.248-0.237-0.502-0.485-0.761-0.745c-0.025-0.025-0.05-0.05-0.074-0.075c-0.262-0.264-0.527-0.537-0.796-0.821
	c-0.027-0.028-0.054-0.056-0.081-0.085c-0.278-0.295-0.557-0.598-0.838-0.91c-0.016-0.018-0.032-0.035-0.048-0.053
	c-0.299-0.334-0.598-0.675-0.893-1.024c-0.006-0.007-0.011-0.014-0.017-0.02c-0.267-0.316-0.531-0.638-0.791-0.963
	c-0.471-0.589-0.927-1.189-1.354-1.792c-0.01-0.014-0.019-0.028-0.029-0.043c-0.201-0.285-0.395-0.57-0.581-0.854
	c-0.042-0.064-0.082-0.128-0.123-0.192c-0.15-0.233-0.295-0.466-0.434-0.697c-0.051-0.086-0.101-0.171-0.151-0.256
	c-0.122-0.209-0.236-0.417-0.347-0.623c-0.051-0.094-0.102-0.189-0.15-0.283c-0.103-0.202-0.197-0.401-0.288-0.599
	c-0.041-0.089-0.086-0.179-0.124-0.268c-0.111-0.257-0.21-0.509-0.297-0.757c-0.008-0.021-0.018-0.044-0.026-0.065
	c-0.003-0.01-0.008-0.019-0.011-0.029c-0.121-0.349-0.259-0.673-0.407-0.98c-0.051-0.107-0.108-0.205-0.162-0.306
	c-0.108-0.201-0.22-0.391-0.339-0.57c-0.062-0.094-0.125-0.185-0.19-0.273c-0.131-0.176-0.268-0.336-0.41-0.486
	c-0.053-0.056-0.104-0.117-0.158-0.17c-0.264-0.254-0.544-0.456-0.836-0.617c-0.098-0.054-0.196-0.108-0.297-0.151
	c-0.087-0.037-0.176-0.065-0.265-0.093c-0.1-0.032-0.2-0.059-0.301-0.08c-0.082-0.017-0.164-0.033-0.247-0.043
	c-0.143-0.016-0.288-0.02-0.434-0.014c-0.037,0.002-0.073-0.007-0.111-0.003c-0.008,0.001-0.015,0.004-0.023,0.005
	c-0.182,0.016-0.358,0.057-0.531,0.106c-0.095,0.027-0.186,0.064-0.278,0.101c-0.075,0.03-0.149,0.065-0.222,0.102
	c-0.113,0.057-0.225,0.116-0.333,0.188c-0.011,0.007-0.021,0.017-0.032,0.024c-0.584,0.399-1.082,1.016-1.474,1.818
	c-0.027,0.055-0.052,0.112-0.078,0.169c-0.121,0.265-0.229,0.548-0.326,0.85c-0.025,0.077-0.052,0.15-0.075,0.23
	c-0.112,0.381-0.211,0.78-0.283,1.211c-0.056,0.331-0.097,0.651-0.132,0.965c-0.003,0.025-0.008,0.052-0.01,0.076
	c-0.023,0.216-0.034,0.422-0.047,0.63c-0.008,0.128-0.022,0.26-0.027,0.384c-0.007,0.18-0.004,0.351-0.005,0.524
	c0,0.144-0.004,0.291,0,0.43c0.005,0.162,0.018,0.316,0.029,0.473c0.01,0.141,0.017,0.284,0.031,0.422
	c0.016,0.156,0.039,0.306,0.06,0.456c0.018,0.126,0.034,0.254,0.056,0.376c0.028,0.16,0.063,0.313,0.097,0.467
	c0.023,0.102,0.044,0.206,0.07,0.306c0.043,0.17,0.092,0.334,0.142,0.496c0.023,0.074,0.044,0.148,0.068,0.22
	c0.061,0.185,0.128,0.362,0.197,0.537c0.015,0.037,0.029,0.075,0.044,0.112c0.771,1.884,1.971,3.203,3.025,4.164
	c1.451,1.323,2.659,2.865,3.293,3.732c-0.402,0.023-0.806,0.058-1.21,0.096c-0.042,0.004-0.083,0.006-0.125,0.01
	c-0.358,0.034-0.714,0.077-1.07,0.121c-0.099,0.012-0.199,0.022-0.297,0.035c-0.354,0.046-0.702,0.097-1.05,0.15
	c-0.094,0.014-0.189,0.027-0.282,0.042c-0.359,0.057-0.708,0.116-1.056,0.178c-0.068,0.012-0.138,0.024-0.206,0.036
	c-1.923,0.35-3.633,0.758-4.798,1.063c-0.119,0.031-0.267,0.078-0.426,0.135c-0.044,0.016-0.085,0.029-0.132,0.047
	c-0.029,0.011-0.06,0.025-0.09,0.037c-0.903,0.366-2.185,1.157-2.913,2.833c-0.008,0.017-0.013,0.038-0.02,0.055
	c-0.083,0.196-0.159,0.401-0.225,0.621c-0.047,0.156-0.081,0.328-0.118,0.497c-0.02,0.092-0.047,0.177-0.064,0.273
	c-0.199,1.108-0.188,2.479,0.165,4.179c-0.073,0.118-0.13,0.246-0.193,0.371c-0.036,0.073-0.08,0.141-0.113,0.216
	c-0.063,0.144-0.111,0.297-0.161,0.449c-0.022,0.069-0.051,0.133-0.071,0.204c-0.046,0.164-0.077,0.337-0.108,0.51
	c-0.012,0.069-0.03,0.134-0.041,0.204c-0.026,0.181-0.038,0.371-0.049,0.562c-0.004,0.073-0.014,0.143-0.016,0.218
	c-0.005,0.202,0.004,0.414,0.015,0.627c0.004,0.074,0.002,0.145,0.008,0.221c0.018,0.232,0.051,0.475,0.087,0.72
	c0.01,0.066,0.014,0.129,0.026,0.196c0.049,0.29,0.112,0.591,0.186,0.899c0.007,0.03,0.011,0.058,0.019,0.088
	c0.086,0.347,0.185,0.704,0.303,1.074c-0.714,1.724-0.44,3.203-0.071,4.432c0.35,1.168,1.536,2.298,2.052,2.749
	c-0.007,0.204,0,0.429,0.017,0.664c0.004,0.061,0.014,0.126,0.021,0.188c0.017,0.166,0.039,0.333,0.072,0.508
	c0.015,0.078,0.035,0.159,0.054,0.239c0.037,0.162,0.082,0.323,0.137,0.489c0.026,0.08,0.058,0.161,0.089,0.242
	c0.062,0.163,0.135,0.325,0.217,0.49c0.043,0.086,0.091,0.172,0.14,0.257c0.077,0.134,0.159,0.266,0.252,0.399
	c0.065,0.093,0.14,0.185,0.213,0.277c0.099,0.124,0.198,0.246,0.313,0.367c0.096,0.101,0.207,0.197,0.315,0.295
	c0.116,0.106,0.226,0.212,0.357,0.314c0.169,0.131,0.363,0.254,0.558,0.376c0.091,0.057,0.163,0.12,0.26,0.175
	c4.094,2.334,15.465,3.585,17.423,3.786L178.896,366l-11.524,3.901c-0.028,0.009-0.05,0.027-0.076,0.04
	c-0.025,0.013-0.051,0.023-0.073,0.038c-0.033,0.023-0.06,0.053-0.088,0.082c-0.015,0.016-0.033,0.029-0.046,0.047
	c-0.028,0.037-0.048,0.079-0.067,0.122c-0.006,0.015-0.016,0.028-0.022,0.043c-0.021,0.061-0.033,0.125-0.033,0.192v72.839
	c0,0.306,0.232,0.562,0.537,0.593l45.546,4.512c0.019,0.002,0.039,0.003,0.058,0.003l0,0c0.009,0,0.016-0.004,0.025-0.005
	c0.068-0.003,0.134-0.015,0.196-0.04c0.036-0.014,0.066-0.04,0.099-0.061c0.026-0.017,0.056-0.028,0.08-0.049
	c0.003-0.003,0.004-0.006,0.007-0.009c0.056-0.052,0.1-0.114,0.131-0.181c0.002-0.004,0.006-0.007,0.007-0.011
	c0.033-0.075,0.051-0.157,0.051-0.24V423.01h0.001c0.316,0.025,0.693,0.05,1.09,0.07c0.004,0,0.008,0,0.013,0.001
	c0.66,0.033,1.37,0.047,1.961,0.009c0.005,0,0.01-0.001,0.016-0.001c0.133-0.009,0.261-0.019,0.378-0.034
	c0.066-0.008,0.123-0.019,0.183-0.029c0.05-0.008,0.108-0.015,0.154-0.024c0,0,0.001,0,0.001-0.001
	c0.008-0.002,0.015-0.007,0.023-0.009c0.164-0.038,0.319-0.094,0.461-0.172c0.447-0.246,0.782-0.683,0.987-1.272h0.003l8.137-1.09
	c2.885,0.142,36.665,1.769,66.984,1.617l-20.05,98.108H110.393c-0.092-1.661-0.418-11.155,3.032-22.748
	c2.024-6.8,5.344-14.317,10.781-21.394c15.528-20.214,33.864-20.803,34.048-20.807c0.329-0.006,0.59-0.277,0.583-0.605
	c-0.006-0.325-0.271-0.585-0.595-0.585c-0.003,0-0.007,0-0.011,0.001c-0.194,0.003-4.837,0.116-11.501,2.798
	c-6.126,2.465-15.17,7.671-23.469,18.474c-5.564,7.242-8.948,14.936-11.005,21.887c-3.418,11.555-3.155,21.048-3.056,22.98h-4.91
	c-0.221-2.01-2.062-15.857-11.487-27.969c-4.685-6.021-11.24-11.609-20.409-15.089c-26.944-10.223-41.299,7.856-41.44,8.041
	c-0.201,0.26-0.153,0.633,0.107,0.834c0.259,0.201,0.633,0.153,0.835-0.106c0.136-0.177,13.984-17.557,40.075-7.655
	c8.846,3.357,15.204,8.726,19.766,14.528c9.175,11.669,11.085,25.079,11.355,27.417H72.576c-0.329,0-0.595,0.267-0.595,0.596v9.053
	H58.152H29.64c-0.663,0-1.2,0.537-1.2,1.2s0.537,1.2,1.2,1.2h535.921c0.663,0,1.2-0.537,1.2-1.2S566.224,529.835,565.561,529.835z
	 M278.417,290.924c-9.062,5.707-16.957,7.214-22.829,4.357c-6.465-3.146-10.424-11.33-11.766-24.324
	c-1.238-11.987-0.863-23.08-0.041-31.809c0.285-0.089,0.54-0.279,0.696-0.561c2.558-4.63,5.192-5.825,10.131-6.751
	c0.651-0.122,1.08-0.749,0.958-1.4c-0.122-0.651-0.748-1.082-1.4-0.958c-4.352,0.816-7.344,1.945-9.891,5.09
	c0.932-7.68,2.089-12.809,2.362-13.957c4.493,1.527,10.145,2.424,17.221,2.174c14.448-0.501,24.8-6.583,27.641-8.441l6.601,37.875
	c0.044,0.254,0.248,0.451,0.503,0.487c0.262,0.037,0.505-0.098,0.619-0.329c0.025-0.051,2.03-4.049,6.56-7.514
	c1.277-0.976,2.743-1.913,4.435-2.703l0.13-0.058c2.099-0.955,4.057-1.132,5.665-0.519c1.451,0.555,2.623,1.771,3.391,3.516
	c1.497,3.406,1.44,8.689-0.159,14.875c-1.266,4.892-3.522,8.146-6.71,9.673c-3.404,1.629-7.264,1.042-10.169,0.114
	c-0.989-0.316-1.868-0.671-2.579-0.992c-0.159-0.072-0.339-0.07-0.494,0.002c-0.157,0.072-0.274,0.209-0.323,0.375
	C298.935,269.254,295.625,280.087,278.417,290.924z M281.574,290.28c13.404-9.129,17.414-17.768,18.317-20.165
	c1.091,0.46,2.46,0.943,3.974,1.286c2.813,0.636,6.138,0.778,9.179-0.68c1.196-0.573,2.271-1.357,3.223-2.349l11.246,2.883
	c-0.445,1.761-1.824,5.498-3.524,9.861c-1.72,4.415-3.768,9.471-5.511,13.773c-3.866,9.544-4.165,10.373-4.105,10.744l2.939,18.2
	l-2.29-0.589c-0.515-1.133-2.628-5.819-4.496-10.574c-1.508-3.838-2.443-7.433-2.861-9.205l1.995,0.908
	c0.299,0.134,0.653,0.004,0.789-0.295c0.136-0.3,0.004-0.652-0.295-0.789l-3.081-1.402c-0.002-0.001-0.004-0.001-0.005-0.002
	L281.574,290.28z M296.438,308.598l7.678,7.581l-4.376,10.347c-0.992-3.839-3.397-13.104-4.421-16.687
	c-1.042-3.646,1.758-9.169,2.647-10.788l8.337,3.795c0.252,1.164,1.257,5.532,3.115,10.261c1.559,3.968,3.286,7.887,4.126,9.758
	l-2.073-0.533l-6.209-6.691c-0.004-0.003-0.007-0.007-0.01-0.01l-7.978-7.88c-0.234-0.229-0.611-0.229-0.842,0.006
	C296.202,307.989,296.205,308.366,296.438,308.598z M213.657,361.134l15.283,12.398c0.125,0.103,0.288,0.147,0.449,0.129
	c0.161-0.021,0.307-0.105,0.404-0.235c0.332-0.446,33.364-44.785,44.711-58.984c0.58-0.726,1.154-1.42,1.723-2.085
	c9.557-11.188,17.531-14.175,18.866-14.614l1.785,0.812c-1.007,1.832-3.863,7.552-2.703,11.61
	c1.295,4.534,4.817,18.224,4.853,18.361c0.063,0.247,0.277,0.427,0.532,0.445c0.252,0.02,0.493-0.127,0.592-0.362l4.86-11.49
	l5.706,6.15c0.078,0.083,0.178,0.143,0.288,0.171l3.423,0.881c0.016,0.005,0.03,0.009,0.046,0.012l3.118,0.802l11.507,31.571
	c-1.84,4.107-3.627,8.055-5.269,11.621c-5.812,12.633-7.309,15.06-7.681,15.38c-0.05,0.038-0.371,0.239-2.065,0.694l-8.58-11.235
	l0,0l-7.266-9.514c-0.099-0.13-0.248-0.213-0.41-0.23c-0.098-0.009-0.194,0.013-0.284,0.048c-0.059,0.023-0.117,0.049-0.166,0.09
	c-0.191,0.164-19.291,16.479-35.278,30.515c-3.172,0.534-6.28,1.054-9.253,1.548c-12.96,2.154-23.342,3.821-25.177,4.115
	l-7.662-7.16l-0.243-0.227c0.004-0.042,0.006-0.084,0.01-0.125c0.351-4.028,0.006-8.255-2.733-9.216
	c-0.975-0.343-2.111-0.517-3.387-0.519L213.657,361.134L213.657,361.134z M301.213,387.154c-6.301,1.213-14.518,2.697-24.607,4.444
	c-1.968,0.341-3.948,0.682-5.926,1.02c-0.082,0.014-0.164,0.028-0.246,0.042c-2.04,0.349-4.077,0.695-6.096,1.037
	c14.236-12.476,30.376-26.291,33.337-28.822l6.666,8.729l0.002,0.002c-0.01,0.021-0.021,0.041-0.031,0.062
	c-0.386,0.765-0.629,1.372-0.722,1.827L301.213,387.154z M304.755,375.734c0.04-0.196,0.152-0.538,0.396-1.07l6.593,8.633
	l-0.271,1.745c-2.245,0.515-5.26,1.14-8.995,1.867L304.755,375.734z M312.744,384.608l0.087,0.114
	c-0.036,0.008-0.072,0.017-0.109,0.026L312.744,384.608z M213.088,383.692c0.638-0.026,1.232-0.003,1.789,0.058
	c0.647,0.071,1.242,0.196,1.772,0.382c2.038,0.716,2.271,4.468,1.902,8.281c-0.017,0.062-0.023,0.126-0.019,0.189
	c-0.219,2.149-0.623,4.303-0.997,5.929c-0.273-0.298-0.568-0.53-0.877-0.691c-0.341-0.176-0.696-0.266-1.055-0.266
	c-0.706,0-1.321,0.067-1.861,0.151c-0.013,0.002-0.028,0.003-0.04,0.005v-0.146v-5.438c2.682-0.748,3.267-1.76,3.359-1.963
	c0.136-0.3,0.011-0.666-0.289-0.803c-0.3-0.133-0.646-0.017-0.782,0.282c-0.005,0.008-0.505,0.819-2.993,1.438
	c-0.357,0.089-0.743,0.168-1.146,0.24c-0.348,0.062-0.708,0.119-1.086,0.169c-0.49,0.063-1.021,0.119-1.601,0.163
	c-0.553,0.044-1.148,0.076-1.788,0.097c-3.163,0.099-5.243-0.646-5.597-1.996c-0.333-1.271,0.894-2.962,2.921-4.025
	c0.199-0.086,2.142-0.918,4.579-1.496C210.652,383.928,211.934,383.738,213.088,383.692z M208.546,422.312v16.779l-36.426-3.608
	v-59.191l36.426-12.303v19.218c-2.415,0.616-4.219,1.405-4.341,1.459c-0.003,0.002-0.006,0.003-0.01,0.005
	c-0.001,0-0.002,0-0.003,0.001c-0.011,0.005-0.021,0.01-0.031,0.016c-2.603,1.359-4.022,3.525-3.533,5.39
	c0.301,1.148,1.605,3.046,6.787,2.883c0.394-0.012,0.771-0.029,1.132-0.051v5.715c-0.663,0.065-1.351,0.109-2.086,0.134
	c-1.762,0.059-3.088,0.608-3.941,1.635c-1.141,1.373-1.011,3.117-0.97,3.481c-0.009,0.346,0.118,0.677,0.368,0.962
	c0.759,0.865,2.87,1.434,6.283,1.694c-1.457,0.068-2.689,0.139-3.54,0.204c-0.803,0.062-1.446,0.386-1.91,0.962
	c-0.911,1.132-0.771,2.876-0.731,3.229c-0.042,1.496,2.4,2.698,7.262,3.575c0.042,0.008,0.084,0.015,0.126,0.022
	c-0.018,0.001-0.036,0.003-0.054,0.004c-1.161,0.084-2.284,0.172-3.233,0.247l-1.263,0.099c-2.452,0.189-3.062,2.636-3.043,3.928
	C201.734,420.259,203.998,421.439,208.546,422.312z M203.209,410.949c0.003-0.042,0.001-0.085-0.004-0.127
	c-0.058-0.428-0.085-1.69,0.474-2.382c0.253-0.313,0.604-0.482,1.071-0.519c1.045-0.08,2.681-0.17,4.606-0.252
	c1.326-0.057,2.706-0.104,3.936-0.137c0.683-0.017,1.317-0.029,1.873-0.034c0.226-0.002,0.443-0.004,0.641-0.004
	c1.153,0,2.179,2.069,2.377,3.927c0.145,1.353-0.156,2.385-0.731,2.509c-0.595,0.129-2.014,0.113-3.738-0.038
	c-0.105-0.009-0.206-0.017-0.313-0.027c-1.283-0.121-2.634-0.308-3.91-0.537C204.846,412.49,203.172,411.424,203.209,410.949z
	 M213.506,405.476c-0.082,0.002-0.162,0.004-0.246,0.005c-1.296,0.021-2.649-0.003-3.907-0.07c-5.208-0.278-6.324-1.111-6.542-1.36
	c-0.078-0.088-0.074-0.135-0.072-0.154c0.003-0.044,0.001-0.09-0.005-0.133c-0.002-0.016-0.207-1.528,0.706-2.617
	c0.627-0.749,1.656-1.152,3.059-1.199c0.964-0.032,1.852-0.097,2.714-0.198l0.125-0.015c1.259-0.153,2.226-0.359,3.079-0.54
	c0.309-0.065,0.604-0.129,0.896-0.185c0.291-0.056,0.6-0.109,0.929-0.152c0.412-0.054,0.857-0.091,1.359-0.091
	c0.169,0,0.335,0.043,0.508,0.132c0.411,0.213,0.82,0.688,1.153,1.337c0.741,1.446,0.975,3.497,0.51,4.479
	c-0.197,0.417-0.444,0.47-0.525,0.487C216.617,405.339,215.164,405.444,213.506,405.476z M209.736,398.48v-5.659
	c0.418-0.038,0.812-0.082,1.182-0.13c0.56-0.073,1.092-0.16,1.592-0.261v5.527c-0.112,0.023-0.225,0.047-0.34,0.071
	C211.469,398.179,210.688,398.344,209.736,398.48z M142.679,310.231c2.321-0.608,6.818-1.643,10.841-1.734l0.136-0.001
	c0.028-0.001,0.055-0.001,0.083-0.001c2.346,0,4.396,0.899,5.237,2.304c0.48,0.8,0.485,1.679,0.014,2.541
	c-0.225,0.411-0.555,0.817-0.984,1.211c-1.328-0.557-3.484-0.635-8.201-0.353c-4.483,0.271-8.163,0.639-10.246,2.399
	C138.884,311.795,141.468,310.549,142.679,310.231z M139.676,318.215c1.5-2.137,5.507-2.545,10.2-2.828
	c1.719-0.104,3.088-0.157,4.187-0.157c1.98,0,3.079,0.175,3.748,0.548c0.427,0.237,0.717,0.576,1.082,1.029
	c0.635,0.79-0.167,2.768-0.841,3.979c-1.092-0.561-2.722-0.734-5.043-0.55c-0.836,0.067-1.658,0.128-2.458,0.187
	c-5.6,0.412-9.731,0.716-11.271,2.456C138.783,320.83,138.916,319.298,139.676,318.215z M140.634,330.05
	c-0.46-0.478-0.952-1.092-1.118-1.646c-0.337-1.121-0.557-2.357,0.106-3.809c0.001-0.002,0.001-0.003,0.002-0.005
	c0.114-0.247,0.252-0.499,0.412-0.746c0.984-1.525,5.656-1.87,10.602-2.233c0.802-0.06,1.626-0.12,2.465-0.187
	c2.378-0.194,3.982,0.03,4.772,0.655c0.001,0.002,0.003,0.003,0.005,0.005c0.773,0.617,0.789,1.666,0.807,2.88l0.009,0.475
	c0.049,1.932-1.546,2.417-1.814,2.485c-1.067-1.031-2.482-1.631-3.84-1.585c-2.697,0.064-10.309,1.305-11.149,1.61
	C141.343,328.148,140.884,329.055,140.634,330.05z M144.031,335.738c-2.178-1.241-2.507-3.111-2.4-4.462
	c0.098-1.229,0.568-2.104,0.667-2.208c0.672-0.245,8.084-1.475,10.771-1.54c0.026,0,0.052-0.001,0.077-0.001
	c1.105,0,2.296,0.562,3.127,1.479c0.699,0.771,0.997,1.646,0.759,2.23c-0.165,0.405-0.706,0.919-1.452,1.433
	c-0.021,0.012-0.041,0.025-0.06,0.04c-0.947,0.643-2.21,1.281-3.458,1.705c-0.854,0.289-1.393,0.355-1.619,0.329
	c-0.49-0.066-0.844-0.35-1.083-0.635c1.765-0.313,3.48-0.879,4.191-1.128l0.303-0.108c0.308-0.116,0.463-0.459,0.348-0.767
	c-0.116-0.309-0.458-0.462-0.766-0.349l-0.277,0.1c-0.771,0.27-2.766,0.926-4.647,1.181l-0.185,0.023
	c-2.214,0.288-3.436,0.234-3.448,0.234c-0.338-0.01-0.607,0.237-0.623,0.566c-0.016,0.328,0.237,0.606,0.565,0.623
	c0.049,0.003,1.169,0.053,3.23-0.189c0.317,0.569,1.001,1.461,2.23,1.628c0.491,0.069,1.218-0.061,2.163-0.382
	c0.626-0.212,1.404-0.536,2.186-0.936c-0.118,0.317-0.253,0.693-0.408,1.14c-0.229,0.658-0.414,1.214-0.471,1.389l0.55,0.233
	l0.581,0.141c0.057-0.172,0.239-0.722,0.465-1.371c0.574-1.648,0.86-2.293,0.988-2.541c0.843-0.59,1.53-1.248,1.799-1.91
	c0.338-0.831,0.17-1.832-0.444-2.785c0.936-0.407,2.108-1.379,2.192-3.17c0.612-0.397,2.481-1.37,5.217-0.588
	c3.386,0.968,5.721,5.183,5.745,5.226c0.157,0.289,0.518,0.396,0.807,0.237c0.289-0.157,0.396-0.519,0.238-0.807
	c-0.104-0.191-2.593-4.695-6.463-5.801c-2.544-0.728-4.483-0.145-5.561,0.382c-0.032-1.009-0.158-2.059-0.86-2.863
	c0.639-1.102,2.053-3.918,0.815-5.457c-0.257-0.32-0.496-0.605-0.776-0.856c0.416-0.415,0.748-0.849,0.991-1.294
	c0.674-1.236,0.661-2.559-0.038-3.724c-0.014-0.022-0.027-0.045-0.041-0.067c0.146-0.469,0.484-1.47,0.885-2.093
	c0.525-0.817,1.113-1.297,1.119-1.302c0.255-0.206,0.296-0.58,0.09-0.836s-0.579-0.298-0.835-0.093
	c-0.03,0.023-0.74,0.597-1.376,1.587c-0.318,0.494-0.592,1.15-0.788,1.689c-1.229-1.075-3.1-1.733-5.154-1.767
	c-0.293-0.436-1.845-2.677-3.92-4.569c-1.98-1.805-4.136-4.568-3.227-9.961c0.38-2.254,1.369-3.716,2.58-3.816
	c1.149-0.093,2.274,1.061,2.945,3.013c1.791,5.218,8.354,11.741,10.789,13.582c1.672,1.265,6.678,12.435,10.896,22.941l0.1,0.25
	c-0.425,0.824-2.111,3.824-5.516,6.797c-2.029,1.772-3.917,2.723-5.144,3.208c-1.18,0.468-2.004,0.612-2.22,0.645
	C160.16,339.292,148.045,338.027,144.031,335.738z M162.207,340.395c0.427-0.109,0.982-0.279,1.634-0.537
	c1.91-0.756,3.757-1.906,5.488-3.419c3.165-2.763,4.894-5.505,5.577-6.743l32.697,26.59l-27.533,9.321L162.207,340.395z
	 M212.51,447.163l-44.355-4.394v-71.873l44.312-15.002v3.986c0,0.002,0,0.003,0,0.005v22.65c-0.858,0.064-1.772,0.196-2.73,0.396
	V363.16c0-0.191-0.092-0.372-0.248-0.483c-0.156-0.113-0.357-0.142-0.538-0.081L171.334,375.3c-0.242,0.082-0.405,0.309-0.405,0.564
	v60.158c0,0.306,0.232,0.562,0.537,0.593l37.617,3.727c0.168,0.017,0.333-0.039,0.458-0.151c0.125-0.113,0.196-0.273,0.196-0.441
	v-17.224c0.916,0.151,1.858,0.279,2.774,0.378v24.259H212.51z M217.245,421.841c-0.524,0.114-1.696,0.115-3.149,0.01
	c-0.253-0.018-0.511-0.039-0.779-0.064c-1.226-0.112-2.527-0.285-3.765-0.501c-4.843-0.844-6.588-1.937-6.55-2.427
	c0.001-0.019,0.002-0.038,0.001-0.057c-0.001-0.105-0.018-2.592,1.944-2.743l1.266-0.099c0.947-0.075,2.067-0.163,3.226-0.247
	c1.33-0.097,2.711-0.188,3.938-0.245c0.132-0.006,0.248-0.009,0.376-0.015c0.682-0.029,1.319-0.048,1.846-0.048
	c1.154,0,2.179,2.069,2.377,3.928C218.121,420.686,217.82,421.717,217.245,421.841z M227.671,411.243
	c-0.066,1.717-0.228,3.429-0.482,5.089c-0.218,1.428-0.453,2.473-0.581,2.994l-4.453,0.597l-2.96,0.397
	c0.018-0.346,0.007-0.718-0.035-1.113c-0.163-1.525-0.753-3.111-1.661-4.075c0.073-0.011,0.141-0.023,0.206-0.037
	c1.248-0.271,1.885-1.726,1.663-3.8c-0.217-2.033-1.196-4.175-2.67-4.806c0.323-0.037,0.594-0.078,0.803-0.123
	c0.589-0.128,1.056-0.522,1.35-1.142c0.608-1.284,0.422-3.534-0.423-5.322c0.229-0.889,0.819-3.317,1.177-6.074l2.855,2.668
	l4.465,4.173c0.042,0.264,0.122,0.779,0.213,1.475C227.393,404.074,227.803,407.823,227.671,411.243z M281.762,420.852
	c-24.948-0.229-49.443-1.337-53.923-1.548c0.139-0.6,0.338-1.553,0.527-2.792c0.261-1.704,0.427-3.462,0.495-5.224
	c0.135-3.508-0.282-7.333-0.543-9.301c-0.061-0.455-0.115-0.836-0.159-1.121c3.083-0.495,17.859-2.874,34.328-5.649
	c4.698-0.792,9.546-1.617,14.322-2.444c18.182-3.149,30.324-5.451,36.088-6.842c0.359-0.088,0.69-0.17,1.003-0.25
	c0.068-0.006,0.136-0.022,0.2-0.053c2.07-0.541,2.582-0.808,2.822-1.016c0.329-0.282,1.202-1.032,7.99-15.787
	c9.3-20.211,23.305-52.719,24.871-56.359l0.112-0.261c0.13-0.302-0.01-0.652-0.312-0.782c-0.299-0.13-0.652,0.009-0.782,0.312
	l-0.112,0.261c-1.255,2.915-10.49,24.354-18.893,43.15l-11.174-30.659l-3.061-18.952c0.188-0.744,2.051-5.34,4.019-10.197
	c2.183-5.388,4.664-11.513,6.509-16.359c1.445-3.794,2.499-6.803,2.713-8.056c0.052-0.305-0.139-0.6-0.439-0.677l-2.686-0.688
	c1.061-0.807,2.06-1.427,2.328-1.438c0.542,0.135,8.473,2.906,13.967,4.839c-0.195,1.141-0.703,4.135-1.3,7.832
	c-0.981,6.071-2.203,14.044-2.68,18.85c-0.619,6.25-0.895,9.546-0.998,10.866c-1.748-0.426-6.501-1.596-9.994-2.586
	c-4.038-1.146-8.441-1.841-9.283-1.969c-0.319-0.038-0.628,0.175-0.678,0.5c-0.049,0.324,0.175,0.628,0.5,0.678
	c0.508,0.077,5.082,0.787,9.137,1.936c4.357,1.236,10.657,2.748,10.721,2.764c0.171,0.041,0.352,0.005,0.491-0.1
	c0.142-0.104,0.229-0.265,0.241-0.439c0.002-0.03,0.207-3.05,1.049-11.532c0.47-4.741,1.671-12.591,2.645-18.625
	c0.602-3.73,1.117-6.767,1.318-7.943c4.902,0.302,39.389,2.707,48.398,10.936c9.36,8.549,40.581,125.22,42.463,132.282l-0.28,0.283
	c-7,7.132-14.382,13.098-22.029,17.834c-2.671,1.655-5.374,3.163-8.105,4.512c-3.205,1.394-6.555,2.538-10.002,3.282
	c-5.662,1.222-11.159,1.983-16.222,2.446c-1.001,0.074-1.992,0.135-2.976,0.19l-20.779-44.161
	c10.422-15.832,25.272-39.339,35.385-55.452c0.098-0.157,0.203-0.324,0.301-0.479c3.855-6.142,6.526-10.423,7.146-11.418
	l0.139-0.223c0.174-0.279,0.089-0.646-0.19-0.819c-0.277-0.175-0.646-0.089-0.819,0.19l-0.139,0.222
	c-0.62,0.994-3.291,5.275-7.145,11.415c-7.751,12.352-22.266,35.379-33.267,52.228c-6.332,9.699-11.5,17.352-13.541,19.739
	C339.832,418.123,329.88,421.294,281.762,420.852z M346.931,510.514h-59.853l18.145-88.581c14.673-0.328,27.351-1.218,33.544-3.098
	l12.017,26.746L346.931,510.514z M351.782,444.898L339.9,418.451c1.174-0.443,2.019-0.936,2.485-1.482
	c1.726-2.018,5.552-7.581,10.458-15.011l20.263,43.064C362.578,445.528,353.597,445.015,351.782,444.898z M457.077,471.667
	c-3.833-14.61-20.989-53.334-21.837-55.246c-0.621-2.341-7.465-28.064-15.683-56.335l91.846-16.972l-30.245,167.4H457.84
	C458.329,506.47,460.637,485.237,457.077,471.667z M295.311,422.071c2.946-0.019,5.852-0.057,8.692-0.114l-18.237,89.033
	c-0.036,0.175,0.009,0.356,0.122,0.495s0.283,0.22,0.461,0.22h61.144h109.674h24.489c0.288,0,0.534-0.206,0.586-0.49l30.487-168.738
	c0.034-0.192-0.027-0.39-0.166-0.527s-0.334-0.198-0.528-0.163l-92.812,17.151c-0.789-2.711-1.59-5.44-2.399-8.173l99.138-18.32
	c1.505-0.276,3.182,0.286,4.372,1.473c1.437,1.432,1.985,3.56,1.545,5.991l-32.641,180.279l-213.969-0.045L295.311,422.071z
	 M288.062,529.835v-8.457h201.076v8.457H288.062z M73.171,521.378h213.701v8.457H73.171V521.378z M288.951,238.243
	c0.341,0.568,0.157,1.305-0.412,1.646c-0.193,0.116-0.406,0.171-0.616,0.171c-0.408,0-0.805-0.208-1.03-0.583
	c-1.448-2.414-7.364-8.41-17.197-7.171c-0.662,0.077-1.258-0.383-1.34-1.041c-0.083-0.658,0.383-1.258,1.041-1.34
	C280.117,228.578,286.872,234.777,288.951,238.243z M251.17,247.129c0-1.993,0.749-3.609,1.673-3.609s1.673,1.616,1.673,3.609
	s-0.749,3.609-1.673,3.609S251.17,249.123,251.17,247.129z M270.325,251.26c-1.268,0-2.297-1.807-2.297-4.036
	s1.029-4.036,2.297-4.036s2.297,1.807,2.297,4.036S271.593,251.26,270.325,251.26z M251.318,269.18
	c-1.238-2.632,1.187-6.911,3.994-11.866l0.655-1.157c3.621-6.431-0.583-17.231-0.625-17.339c-0.121-0.306,0.028-0.651,0.334-0.772
	c0.305-0.122,0.652,0.028,0.772,0.334c0.184,0.463,4.457,11.434,0.556,18.362l-0.656,1.161c-2.423,4.276-4.929,8.697-3.953,10.771
	c0.331,0.704,1.081,1.15,2.291,1.366c5.474,0.968,8.317-2.226,8.436-2.362c0.215-0.249,0.59-0.276,0.839-0.062
	s0.278,0.588,0.065,0.837c-0.118,0.138-2.594,2.962-7.309,2.962c-0.698,0-1.444-0.062-2.239-0.203
	C252.882,270.927,251.819,270.244,251.318,269.18z M274.464,272.951c-10.708,3.834-20.459,2.939-22.721,1.921
	c-0.209-0.094-0.457-0.059-0.632,0.091s-0.248,0.389-0.186,0.611c0.104,0.372,2.587,9.127,7.704,11.685
	c0.929,0.464,1.887,0.697,2.866,0.697c0.83,0,1.675-0.167,2.53-0.501c8.41-3.289,11.106-13.366,11.217-13.793
	c0.055-0.214-0.012-0.44-0.175-0.589C274.903,272.923,274.672,272.876,274.464,272.951z M263.59,286.346
	c-1.557,0.609-3.005,0.56-4.428-0.151c-3.642-1.819-5.918-7.46-6.742-9.851c3.656,0.921,12.129,1.154,21.317-1.883
	C272.797,277.126,269.856,283.895,263.59,286.346z M275.493,349.594c-0.273-0.182-0.348-0.552-0.166-0.825
	c0.183-0.272,0.552-0.35,0.826-0.165l19.834,13.204c0.217,0.145,0.315,0.414,0.241,0.664s-0.303,0.423-0.563,0.427l-14.29,0.171
	c-0.002,0-0.005,0-0.007,0c-0.326,0-0.591-0.263-0.595-0.589c-0.004-0.328,0.259-0.599,0.588-0.603l12.363-0.147L275.493,349.594z
	 M388.182,183.41c0-0.329,0.267-0.595,0.596-0.595h95.028c0.329,0,0.596,0.267,0.596,0.595s-0.267,0.595-0.596,0.595h-95.028
	C388.448,184.005,388.182,183.738,388.182,183.41z M388.182,211.509c0-0.329,0.267-0.595,0.596-0.595h95.028
	c0.329,0,0.596,0.267,0.596,0.595s-0.267,0.595-0.596,0.595h-95.028C388.448,212.104,388.182,211.837,388.182,211.509z
	 M388.182,192.419c0-0.329,0.267-0.595,0.596-0.595h71.828c0.329,0,0.596,0.267,0.596,0.595s-0.267,0.595-0.596,0.595h-71.828
	C388.448,193.014,388.182,192.748,388.182,192.419z M388.182,239.607c0-0.329,0.267-0.595,0.596-0.595h95.028
	c0.329,0,0.596,0.267,0.596,0.595s-0.267,0.595-0.596,0.595h-95.028C388.448,240.203,388.182,239.936,388.182,239.607z
	 M358.145,252.978v-17.731c0-0.329,0.267-0.595,0.596-0.595h17.731c0.329,0,0.596,0.267,0.596,0.595v3.306l-1.191,0.967v-3.678
	h-16.54v16.541h16.54v-9.731l1.191-1.31v11.636c0,0.329-0.267,0.595-0.596,0.595H358.74
	C358.411,253.573,358.145,253.306,358.145,252.978z M388.182,164.321c0-0.329,0.267-0.595,0.596-0.595h71.828
	c0.329,0,0.596,0.267,0.596,0.595s-0.267,0.595-0.596,0.595h-71.828C388.448,164.916,388.182,164.649,388.182,164.321z
	 M358.145,196.78v-17.731c0-0.329,0.267-0.595,0.596-0.595h17.731c0.329,0,0.596,0.267,0.596,0.595v3.106l-1.191,0.967v-3.478
	h-16.54v16.541h16.54v-9.931l1.191-1.311v11.837c0,0.329-0.267,0.595-0.596,0.595H358.74
	C358.411,197.375,358.145,197.109,358.145,196.78z M388.182,248.617c0-0.329,0.267-0.595,0.596-0.595h71.828
	c0.329,0,0.596,0.267,0.596,0.595s-0.267,0.595-0.596,0.595h-71.828C388.448,249.212,388.182,248.946,388.182,248.617z
	 M388.182,155.311c0-0.329,0.267-0.595,0.596-0.595h95.028c0.329,0,0.596,0.267,0.596,0.595s-0.267,0.595-0.596,0.595h-95.028
	C388.448,155.906,388.182,155.639,388.182,155.311z M358.145,224.879v-17.731c0-0.329,0.267-0.595,0.596-0.595h17.731
	c0.329,0,0.596,0.267,0.596,0.595v3.978l-1.191,0.967v-4.35h-16.54v16.541h16.54v-9.058l1.191-1.311v10.964
	c0,0.329-0.267,0.595-0.596,0.595H358.74C358.411,225.474,358.145,225.208,358.145,224.879z M388.182,220.518
	c0-0.329,0.267-0.595,0.596-0.595h71.828c0.329,0,0.596,0.267,0.596,0.595s-0.267,0.595-0.596,0.595h-71.828
	C388.448,221.113,388.182,220.847,388.182,220.518z M358.145,168.682V150.95c0-0.329,0.267-0.595,0.596-0.595h17.731
	c0.329,0,0.596,0.267,0.596,0.595v4.269l-1.191,0.967v-4.641h-16.54v16.542h16.54v-8.769l1.191-1.311v10.674
	c0,0.329-0.267,0.595-0.596,0.595H358.74C358.411,169.277,358.145,169.01,358.145,168.682z"></path>
<path id="color_x5F_w" fill="#FFFFFF" d="M146.151,299.453c-0.003-0.008-0.008-0.015-0.012-0.024
	c-0.012-0.029-0.021-0.06-0.032-0.088C146.122,299.378,146.136,299.416,146.151,299.453z M147.175,308.016
	c0.068-0.012,0.137-0.024,0.206-0.036c-0.047,0.008-0.097,0.016-0.144,0.024C147.215,308.008,147.196,308.012,147.175,308.016z
	 M217.521,422.996c-0.008,0.002-0.015,0.007-0.023,0.009l0,0C217.506,423.003,217.513,422.998,217.521,422.996z M137.819,320.272
	c-0.004,0.065-0.014,0.124-0.016,0.19c0,0.009,0.001,0.019,0.001,0.028C137.805,320.414,137.814,320.345,137.819,320.272z
	 M141.174,334.571c-0.049-0.086-0.097-0.171-0.14-0.257c0.02,0.04,0.032,0.081,0.053,0.12
	C141.112,334.48,141.147,334.525,141.174,334.571z M375.034,276.252c-0.25-0.057-0.508-0.106-0.76-0.161
	c5.024,1.107,9.754,2.485,13.387,4.194C384.209,278.656,379.777,277.327,375.034,276.252z M365.231,274.403
	c0.851,0.134,1.708,0.278,2.565,0.426C366.939,274.68,366.082,274.537,365.231,274.403z M368.721,274.988
	c0.763,0.136,1.525,0.28,2.285,0.427C370.246,275.268,369.484,275.124,368.721,274.988z M367.796,274.828
	c0.308,0.053,0.616,0.105,0.925,0.16C368.412,274.933,368.105,274.882,367.796,274.828z M365.231,274.403
	c-0.174-0.028-0.347-0.053-0.521-0.08C364.885,274.35,365.057,274.375,365.231,274.403z M364.711,274.323
	c-0.979-0.152-1.952-0.297-2.91-0.431C362.758,274.026,363.733,274.172,364.711,274.323z M371.006,275.416
	c0.396,0.077,0.792,0.153,1.186,0.233C371.797,275.569,371.403,275.492,371.006,275.416z M374.274,276.091
	c-0.69-0.152-1.383-0.3-2.082-0.442C372.891,275.791,373.584,275.939,374.274,276.091z M490.33,529.835L490.33,529.835v-9.003v0.002
	V529.835z M319.799,262.245c0.211-0.613,0.405-1.252,0.579-1.921C320.201,261.002,320.007,261.639,319.799,262.245z
	 M319.038,264.168c0.257-0.565,0.497-1.159,0.716-1.785C319.531,263.018,319.291,263.61,319.038,264.168z M213.78,415.505
	c-0.012-0.015-0.015-0.035-0.027-0.051c-0.128,0.005-0.244,0.008-0.376,0.015c-1.228,0.058-2.608,0.148-3.938,0.245
	c-1.158,0.084-2.278,0.172-3.226,0.247l-1.266,0.099c-1.961,0.151-1.945,2.638-1.944,2.743c0,0.019,0,0.038-0.001,0.057
	c-0.038,0.49,1.707,1.583,6.55,2.427c1.238,0.216,2.54,0.389,3.765,0.501c0.268,0.025,0.526,0.045,0.779,0.064
	C215.268,420.791,215.071,417.09,213.78,415.505z M521.108,333.011c-0.023-0.023-0.05-0.039-0.074-0.062
	c0.029,0.028,0.061,0.052,0.09,0.08C521.118,333.023,521.113,333.016,521.108,333.011z M517.771,331.282
	c-0.011-0.002-0.022-0.001-0.033-0.003c0.016,0.003,0.031,0.004,0.047,0.007C517.78,331.285,517.775,331.283,517.771,331.282z
	 M73.171,529.835h213.701v-8.457H73.171V529.835z M312.456,183.78c-0.02-0.034-0.046-0.068-0.066-0.102
	c0.169,0.288,0.322,0.579,0.453,0.871C312.728,184.292,312.602,184.035,312.456,183.78z M313.549,187.057
	c-0.007-0.054-0.02-0.11-0.028-0.164c0.033,0.229,0.059,0.454,0.074,0.675C313.584,187.4,313.571,187.23,313.549,187.057z
	 M153.403,291.585c-0.004-0.01-0.008-0.018-0.012-0.029C153.394,291.566,153.399,291.575,153.403,291.585
	c0.007,0.021,0.018,0.044,0.025,0.065C153.421,291.629,153.41,291.606,153.403,291.585z M304.311,373.668
	c0.01-0.02,0.021-0.041,0.031-0.062l-0.002-0.002C304.33,373.627,304.323,373.646,304.311,373.668z M311.473,385.042l0.271-1.745
	l-6.593-8.633c-0.244,0.531-0.356,0.874-0.396,1.07l-2.277,11.175C306.213,386.182,309.228,385.557,311.473,385.042z
	 M213.657,359.601l0.001,0.001v-4.537h-0.001c0-0.063-0.01-0.128-0.031-0.191c-0.006-0.016-0.018-0.028-0.025-0.043
	c0.032,0.074,0.056,0.151,0.056,0.234V359.601z M317.312,323.834l-2.939-18.2c-0.06-0.371,0.239-1.2,4.105-10.744
	c1.743-4.302,3.791-9.358,5.511-13.773l-20.124-9.715c-1.514-0.343-2.883-0.826-3.974-1.286
	c-0.904,2.397-4.913,11.035-18.317,20.165l25.494,11.606c0.001,0.001,0.003,0.001,0.005,0.002l3.081,1.402
	c0.299,0.137,0.431,0.489,0.295,0.789c-0.136,0.299-0.49,0.429-0.789,0.295l-1.995-0.908c0.418,1.772,1.354,5.367,2.861,9.205
	c1.868,4.755,3.981,9.441,4.496,10.574L317.312,323.834z M245.333,220.962c-0.47,2.069-1.649,7.718-2.512,15.7
	c0.006-0.01,0.012-0.021,0.019-0.032C243.699,228.687,244.866,223.04,245.333,220.962z M297.275,307.75l7.978,7.88
	c0.003,0.003,0.006,0.007,0.01,0.01l6.209,6.691l2.073,0.533c-0.84-1.871-2.567-5.79-4.126-9.758
	c-1.858-4.729-2.863-9.097-3.115-10.261l-8.337-3.795c-0.89,1.619-3.689,7.142-2.647,10.788c1.024,3.583,3.429,12.848,4.421,16.687
	l4.376-10.347l-7.678-7.581c-0.234-0.231-0.236-0.608-0.005-0.842C296.665,307.521,297.041,307.521,297.275,307.75z
	 M312.722,384.748c0.036-0.009,0.073-0.018,0.109-0.026l-0.087-0.114L312.722,384.748z M242.058,263.646
	c-0.494-9.283-0.11-17.792,0.556-24.786c-0.005-0.004-0.01-0.008-0.015-0.012C241.935,245.825,241.556,254.328,242.058,263.646z
	 M262.228,297.875c0.008,0,0.016-0.001,0.024-0.001C262.244,297.874,262.236,297.875,262.228,297.875z M260.22,297.787
	c0.655,0.066,1.324,0.095,2.008,0.088C261.548,297.88,260.877,297.854,260.22,297.787z M264.326,297.741
	c-0.705,0.081-1.396,0.125-2.074,0.133c0.599-0.005,1.205-0.033,1.822-0.097C264.157,297.768,264.243,297.75,264.326,297.741z
	 M168.155,442.77l44.355,4.394v-24.26c-0.916-0.099-1.858-0.227-2.774-0.378v17.224c0,0.168-0.071,0.328-0.196,0.441
	c-0.125,0.112-0.29,0.168-0.458,0.151l-37.617-3.727c-0.305-0.03-0.537-0.287-0.537-0.593v-60.158c0-0.256,0.163-0.482,0.405-0.564
	l37.617-12.704c0.181-0.061,0.382-0.032,0.538,0.081c0.156,0.111,0.248,0.292,0.248,0.483v19.771
	c0.958-0.199,1.872-0.331,2.73-0.396v-22.65c0-0.002,0-0.003,0-0.005v-3.986l-44.312,15.002v71.874H168.155z M202.739,403.896
	c-0.002,0.02-0.005,0.066,0.072,0.154c0.218,0.249,1.334,1.082,6.542,1.36c1.258,0.067,2.611,0.091,3.907,0.07
	c0.083-0.001,0.163-0.004,0.246-0.005c0.59-1.546,2.01-5.615,0.934-6.412c-0.07-0.052-0.135-0.127-0.197-0.207
	c-0.329,0.043-0.638,0.096-0.929,0.152c-0.292,0.056-0.588,0.119-0.896,0.185c-0.853,0.181-1.82,0.387-3.079,0.54l-0.125,0.015
	c-0.862,0.102-1.75,0.166-2.714,0.198c-1.403,0.047-2.432,0.45-3.059,1.199c-0.913,1.089-0.708,2.602-0.706,2.617
	C202.741,403.807,202.742,403.853,202.739,403.896z M215.28,407.585c-0.043-0.033-0.073-0.055-0.114-0.086
	c-0.557,0.006-1.19,0.018-1.873,0.034c-1.23,0.032-2.61,0.08-3.936,0.137c-1.925,0.082-3.561,0.172-4.606,0.252
	c-0.468,0.036-0.818,0.205-1.071,0.519c-0.559,0.691-0.532,1.954-0.474,2.382c0.005,0.042,0.007,0.085,0.004,0.127
	c-0.037,0.475,1.637,1.541,6.282,2.379c1.275,0.229,2.627,0.416,3.91,0.537c0.107,0.01,0.208,0.018,0.313,0.027
	C214.378,411.786,216.812,408.734,215.28,407.585z M169.329,336.438c-1.731,1.513-3.578,2.663-5.488,3.419
	c-0.651,0.258-1.207,0.428-1.634,0.537l17.863,25.212l27.533-9.321l-32.697-26.59C174.222,330.934,172.494,333.676,169.329,336.438z
	 M222.155,419.923l4.453-0.597c0.128-0.521,0.363-1.566,0.581-2.994c0.254-1.66,0.416-3.372,0.482-5.089
	c0.132-3.42-0.278-7.169-0.534-9.1c-0.092-0.695-0.171-1.211-0.213-1.475l-4.465-4.173c0.439,0.774,0.732,1.38,0.682,1.548
	c-0.18,0.6,0.84,12.96,0.12,17.16C222.817,417.791,222.496,419.198,222.155,419.923z M217.983,422.824
	c0.469-0.253,0.794-0.701,0.99-1.272h-0.003C218.764,422.141,218.429,422.578,217.983,422.824z M213.107,448.416
	c0.008,0,0.015-0.004,0.023-0.005c-0.009,0-0.016,0.005-0.025,0.005l0,0C213.106,448.416,213.106,448.416,213.107,448.416z
	 M213.65,448.06c0.033-0.074,0.052-0.154,0.052-0.24v-24.806h-0.001v24.806C213.701,447.904,213.683,447.986,213.65,448.06z
	 M139.921,310.497c-0.099,0.1-0.195,0.208-0.29,0.322C139.726,310.706,139.822,310.597,139.921,310.497z M140.417,310.058
	c0.15-0.117,0.3-0.223,0.449-0.316C140.717,309.835,140.569,309.941,140.417,310.058z M139.481,310.986
	c-0.248,0.325-0.474,0.705-0.664,1.145c0.226-0.521,0.509-0.948,0.814-1.311C139.582,310.878,139.529,310.923,139.481,310.986z
	 M140.417,310.058c-0.082,0.064-0.164,0.127-0.246,0.199C140.253,310.186,140.335,310.122,140.417,310.058z M141.076,309.616
	c-0.069,0.038-0.14,0.083-0.21,0.127C140.937,309.699,141.007,309.655,141.076,309.616z M141.322,309.484
	c0.141-0.069,0.282-0.136,0.407-0.186C141.601,309.35,141.463,309.413,141.322,309.484z M141.076,309.616
	c0.083-0.047,0.165-0.091,0.246-0.132C141.241,309.524,141.161,309.569,141.076,309.616z M139.921,310.497
	c0.083-0.083,0.166-0.165,0.25-0.24C140.086,310.332,140.004,310.413,139.921,310.497z M209.736,392.821v5.659
	c0.952-0.137,1.732-0.302,2.434-0.451c0.115-0.024,0.229-0.048,0.34-0.071v-5.527c-0.5,0.101-1.032,0.188-1.592,0.261
	C210.549,392.739,210.155,392.783,209.736,392.821z M317.136,267.367l0.005,0.001c0.681-0.878,1.308-1.914,1.864-3.125
	C318.464,265.417,317.841,266.46,317.136,267.367z M288.062,529.835h201.076v-8.457H288.062V529.835z M523.08,336.771
	c-0.012-0.062-0.034-0.117-0.047-0.178c0.024,0.115,0.051,0.229,0.07,0.346C523.094,336.884,523.09,336.825,523.08,336.771z
	 M213.741,397.726c-0.013-0.047-0.028-0.092-0.04-0.14v0.146C213.713,397.729,213.729,397.728,213.741,397.726z M139.279,322.879
	c1.541-1.74,5.672-2.044,11.271-2.456c0.8-0.059,1.621-0.119,2.458-0.187c2.321-0.185,3.951-0.011,5.043,0.55
	c0.675-1.212,1.477-3.189,0.841-3.979c-0.364-0.453-0.655-0.792-1.082-1.029c-0.669-0.373-1.768-0.548-3.748-0.548
	c-1.098,0-2.468,0.054-4.187,0.157c-4.693,0.283-8.7,0.691-10.2,2.828C138.916,319.298,138.783,320.83,139.279,322.879z
	 M214.876,383.75c-0.557-0.061-1.151-0.084-1.789-0.058c-1.154,0.046-2.436,0.235-3.809,0.561c-2.437,0.578-4.38,1.41-4.579,1.496
	c-2.027,1.063-3.254,2.754-2.921,4.025c0.354,1.351,2.435,2.095,5.597,1.996c0.64-0.021,1.235-0.053,1.788-0.097
	c0.579-0.044,1.111-0.1,1.601-0.163c0.378-0.049,0.738-0.107,1.086-0.169c0.916-0.73,2.183-1.854,2.589-2.777
	C214.923,387.468,214.504,384.868,214.876,383.75z M141.892,327.949c0.84-0.306,8.452-1.546,11.149-1.61
	c1.358-0.046,2.772,0.554,3.84,1.585c0.269-0.068,1.864-0.554,1.814-2.485l-0.009-0.475c-0.018-1.214-0.034-2.263-0.807-2.88
	c-0.002-0.002-0.004-0.003-0.005-0.005c-0.79-0.625-2.394-0.85-4.772-0.655c-0.839,0.066-1.663,0.127-2.465,0.187
	c-4.946,0.363-9.617,0.708-10.602,2.233c-0.159,0.247-0.298,0.499-0.412,0.746c-0.001,0.002-0.001,0.003-0.002,0.005
	c-0.663,1.451-0.443,2.688-0.106,3.809c0.166,0.555,0.658,1.169,1.118,1.646C140.884,329.055,141.343,328.148,141.892,327.949z
	 M139.559,316.598c2.083-1.761,5.762-2.129,10.246-2.399c4.717-0.282,6.873-0.204,8.201,0.353c0.429-0.394,0.76-0.8,0.984-1.211
	c0.471-0.862,0.466-1.741-0.014-2.541c-0.842-1.404-2.892-2.304-5.237-2.304c-0.028,0-0.055,0-0.083,0.001l-0.136,0.001
	c-4.023,0.092-8.52,1.126-10.841,1.734C141.468,310.549,138.884,311.795,139.559,316.598z M244.274,234.568
	c0.932-7.68,2.089-12.809,2.362-13.957c4.493,1.527,10.145,2.424,17.221,2.174c14.448-0.501,24.8-6.583,27.641-8.441l6.601,37.875
	c0.044,0.254,0.248,0.451,0.503,0.487c0.262,0.037,0.505-0.098,0.619-0.329c0.025-0.051,2.03-4.049,6.56-7.514
	c7.697-1.363,12.585,1.648,11.26,10.441c-1.397,9.279-7.208,13.379-11.16,14.16c-1.379,0.272-2.554,0.329-3.518,0.297
	c-0.989-0.316-1.868-0.671-2.579-0.992c-0.159-0.072-0.339-0.07-0.494,0.002c-0.157,0.072-0.274,0.209-0.323,0.375
	c-0.032,0.108-3.341,10.941-20.55,21.778c-9.062,5.707-16.957,7.214-22.829,4.357c-6.465-3.146-10.424-11.33-11.766-24.324
	c-1.238-11.987-0.863-23.08-0.041-31.809c0.285-0.089,0.54-0.279,0.696-0.561c2.558-4.63,5.192-5.825,10.131-6.751
	c0.651-0.122,1.08-0.749,0.958-1.4c-0.122-0.651-0.748-1.082-1.4-0.958C249.813,230.293,246.82,231.423,244.274,234.568z
	 M251.17,247.129c0,1.993,0.749,3.609,1.673,3.609s1.673-1.616,1.673-3.609s-0.749-3.609-1.673-3.609S251.17,245.136,251.17,247.129
	z M275.241,273.661c0.055-0.214-0.012-0.44-0.175-0.589s-0.394-0.196-0.602-0.121c-10.708,3.834-20.459,2.939-22.721,1.921
	c-0.209-0.094-0.457-0.059-0.632,0.091s-0.248,0.389-0.186,0.611c0.104,0.372,2.587,9.127,7.704,11.685
	c0.929,0.464,1.887,0.697,2.866,0.697c0.83,0,1.675-0.167,2.53-0.501C272.434,284.166,275.13,274.088,275.241,273.661z
	 M268.355,231.266c0.082,0.657,0.679,1.118,1.34,1.041c9.833-1.239,15.749,4.757,17.197,7.171c0.225,0.375,0.622,0.583,1.03,0.583
	c0.21,0,0.423-0.055,0.616-0.171c0.568-0.341,0.752-1.078,0.412-1.646c-2.079-3.466-8.834-9.665-19.555-8.318
	C268.739,230.008,268.272,230.608,268.355,231.266z M268.028,247.224c0,2.229,1.029,4.036,2.297,4.036s2.297-1.807,2.297-4.036
	s-1.029-4.036-2.297-4.036C269.056,243.188,268.028,244.995,268.028,247.224z M255.676,238.045
	c-0.306,0.121-0.455,0.467-0.334,0.772c0.042,0.108,4.246,10.908,0.625,17.339l-0.655,1.157c-2.808,4.955-5.232,9.234-3.994,11.866
	c0.5,1.064,1.563,1.747,3.16,2.031c0.795,0.142,1.541,0.203,2.239,0.203c4.715,0,7.191-2.824,7.309-2.962
	c0.213-0.25,0.184-0.624-0.065-0.837s-0.624-0.186-0.839,0.062c-0.119,0.136-2.962,3.33-8.436,2.362
	c-1.21-0.215-1.96-0.662-2.291-1.366c-0.976-2.074,1.53-6.496,3.953-10.771l0.656-1.161c3.901-6.928-0.372-17.898-0.556-18.362
	C256.328,238.073,255.981,237.923,255.676,238.045z M515.961,332.443l-99.138,18.32c0.809,2.734,1.61,5.463,2.399,8.173
	l92.812-17.151c0.194-0.035,0.39,0.025,0.528,0.163s0.2,0.335,0.166,0.527l-30.487,168.738c-0.052,0.284-0.298,0.49-0.586,0.49
	h-24.489H347.492h-61.144c-0.179,0-0.348-0.081-0.461-0.22s-0.158-0.32-0.122-0.495l18.237-89.033
	c-2.839,0.057-5.746,0.094-8.692,0.114l-20.043,98.07l213.969,0.045l32.641-180.279c0.44-2.432-0.108-4.56-1.545-5.991
	C519.143,332.729,517.466,332.167,515.961,332.443z M373.107,445.022l-20.263-43.064c-4.906,7.43-8.732,12.993-10.458,15.011
	c-0.467,0.547-1.312,1.039-2.485,1.482l11.882,26.447C353.597,445.015,362.578,445.528,373.107,445.022z M161.182,339.395
	c0.215-0.032,1.04-0.177,2.22-0.645c1.227-0.485,3.114-1.436,5.144-3.208c3.405-2.973,5.091-5.973,5.516-6.797l-0.1-0.25
	c-4.219-10.507-9.225-21.677-10.896-22.941c-2.435-1.841-8.998-8.364-10.789-13.582c-0.67-1.952-1.796-3.106-2.945-3.013
	c-1.211,0.1-2.2,1.562-2.58,3.816c-0.91,5.393,1.247,8.157,3.227,9.961c2.076,1.893,3.627,4.134,3.92,4.569
	c2.054,0.033,3.924,0.691,5.154,1.767c0.196-0.539,0.47-1.195,0.788-1.689c0.636-0.99,1.346-1.563,1.376-1.587
	c0.256-0.205,0.629-0.163,0.835,0.093s0.165,0.63-0.09,0.836c-0.006,0.005-0.594,0.484-1.119,1.302
	c-0.401,0.623-0.739,1.624-0.885,2.093c0.014,0.022,0.027,0.045,0.041,0.067c0.699,1.165,0.712,2.487,0.038,3.724
	c-0.243,0.445-0.575,0.879-0.991,1.294c0.28,0.251,0.519,0.536,0.776,0.856c1.238,1.539-0.176,4.355-0.815,5.457
	c0.703,0.805,0.828,1.854,0.86,2.863c1.078-0.526,3.017-1.109,5.561-0.382c3.87,1.105,6.359,5.609,6.463,5.801
	c0.157,0.288,0.05,0.649-0.238,0.807c-0.29,0.158-0.65,0.052-0.807-0.237c-0.023-0.043-2.359-4.258-5.745-5.226
	c-2.736-0.782-4.605,0.19-5.217,0.588c-0.084,1.791-1.256,2.763-2.192,3.17c0.614,0.953,0.783,1.954,0.444,2.785
	c-0.27,0.662-0.956,1.32-1.799,1.91c-0.128,0.248-0.414,0.893-0.988,2.541c-0.226,0.649-0.408,1.199-0.465,1.371l-0.581-0.141
	l-0.55-0.233c0.058-0.175,0.242-0.73,0.471-1.389c0.155-0.446,0.291-0.822,0.408-1.14c-0.782,0.399-1.56,0.724-2.186,0.936
	c-0.944,0.321-1.671,0.451-2.163,0.382c-1.229-0.167-1.913-1.059-2.23-1.628c-2.061,0.242-3.182,0.192-3.23,0.189
	c-0.328-0.017-0.581-0.295-0.565-0.623c0.016-0.329,0.285-0.576,0.623-0.566c0.012,0,1.233,0.054,3.448-0.234l0.185-0.023
	c1.882-0.255,3.877-0.911,4.647-1.181l0.277-0.1c0.308-0.113,0.65,0.04,0.766,0.349c0.116,0.308-0.04,0.65-0.348,0.767l-0.303,0.108
	c-0.711,0.249-2.427,0.814-4.191,1.128c0.239,0.285,0.593,0.568,1.083,0.635c0.226,0.026,0.765-0.04,1.619-0.329
	c1.248-0.424,2.51-1.062,3.458-1.705c0.019-0.015,0.039-0.028,0.06-0.04c0.747-0.514,1.287-1.027,1.452-1.433
	c0.238-0.584-0.06-1.459-0.759-2.23c-0.831-0.917-2.022-1.479-3.127-1.479c-0.025,0-0.051,0.001-0.077,0.001
	c-2.686,0.065-10.099,1.295-10.771,1.54c-0.1,0.104-0.57,0.979-0.667,2.208c-0.107,1.351,0.222,3.221,2.4,4.462
	C148.045,338.027,160.16,339.292,161.182,339.395z M320.589,244.852L320.589,244.852c0.184,0.444,0.341,0.915,0.479,1.406
	C320.93,245.761,320.77,245.292,320.589,244.852z M328.577,198.627c-2.723-4.36-7.241-5.998-10.818-6.829
	C321.293,192.626,325.853,194.284,328.577,198.627z M213.657,382.491c1.275,0.002,2.412,0.176,3.387,0.519
	c2.739,0.962,3.083,5.188,2.733,9.216c0.073,0.109,0.15,0.227,0.233,0.352l7.662,7.16c1.835-0.294,12.217-1.962,25.177-4.115
	c4.042-3.519,27.946-25.605,25.911-29.618c-2.22-4.38-1.8-5.58-0.9-7.2c0.9-1.62-8.76-12.9-8.94-13.5s9.78,3.24,17.94,7.08
	c6.885,3.24,9.906,9.273,10.685,11.085c0.09-0.036,0.185-0.057,0.284-0.048c0.163,0.018,0.311,0.101,0.41,0.23l7.266,9.514l0,0
	l8.58,11.235c1.694-0.455,2.016-0.656,2.065-0.694c0.372-0.32,1.869-2.747,7.681-15.38c1.642-3.566,3.429-7.514,5.269-11.621
	l-11.507-31.571l-3.118-0.802c-0.016-0.003-0.03-0.007-0.046-0.012l-3.423-0.881c-0.11-0.028-0.21-0.088-0.288-0.171l-5.706-6.15
	l-4.86,11.49c-0.099,0.235-0.34,0.382-0.592,0.362c-0.255-0.019-0.469-0.198-0.532-0.445c-0.036-0.138-3.557-13.827-4.853-18.361
	c-1.16-4.059,1.696-9.778,2.703-11.61l-1.785-0.812c-1.335,0.439-9.309,3.426-18.866,14.614c-0.569,0.665-1.143,1.359-1.723,2.085
	c-11.347,14.199-44.379,58.538-44.711,58.984c-0.097,0.13-0.243,0.215-0.404,0.235c-0.161,0.019-0.323-0.026-0.449-0.129
	l-15.283-12.398L213.657,382.491L213.657,382.491z M228.366,416.512c-0.189,1.239-0.389,2.192-0.527,2.792
	c4.48,0.211,28.975,1.319,53.923,1.548c48.118,0.442,58.07-2.729,59.72-4.656c2.041-2.387,7.209-10.04,13.541-19.739
	c8.252-17.012,37.984-79.561,35.398-92.492c-3-15-49.188-22.905-48.54-22.8c0.056,0.009,0.019-0.007-0.056-0.033
	c-0.974,6.034-2.175,13.884-2.645,18.625c-0.842,8.482-1.047,11.502-1.049,11.532c-0.012,0.175-0.1,0.336-0.241,0.439
	c-0.14,0.104-0.32,0.141-0.491,0.1c-0.063-0.016-6.363-1.527-10.721-2.764c-4.055-1.148-8.629-1.858-9.137-1.936
	c-0.325-0.05-0.549-0.354-0.5-0.678c0.05-0.325,0.358-0.538,0.678-0.5c0.842,0.128,5.245,0.823,9.283,1.969
	c3.493,0.99,8.246,2.16,9.994,2.586c0.104-1.32,0.379-4.616,0.998-10.866c0.477-4.807,1.699-12.779,2.68-18.85
	c-2.459-0.7-7.982-2.186-10.854-2.805c-1.678-0.361-2.89,0.218-3.729,0.993c-1.845,4.845-4.327,10.971-6.509,16.359
	c-1.968,4.857-3.83,9.453-4.019,10.197l3.061,18.952l11.174,30.659c8.402-18.797,17.638-40.235,18.893-43.15l0.112-0.261
	c0.13-0.303,0.483-0.441,0.782-0.312c0.302,0.13,0.441,0.48,0.312,0.782l-0.112,0.261c-1.566,3.641-15.571,36.148-24.871,56.359
	c-6.788,14.755-7.661,15.505-7.99,15.787c-0.24,0.208-0.752,0.475-2.822,1.016c-0.064,0.03-0.132,0.047-0.2,0.053
	c-0.312,0.08-0.644,0.162-1.003,0.25c-5.765,1.391-17.906,3.692-36.088,6.842c-4.776,0.827-9.624,1.652-14.322,2.444
	c-16.469,2.775-31.245,5.154-34.328,5.649c0.043,0.285,0.098,0.666,0.159,1.121c0.261,1.968,0.678,5.793,0.543,9.301
	C228.793,413.05,228.626,414.808,228.366,416.512z M313.041,190.764v0.001c0.02,0.009,0.056,0.018,0.078,0.026
	C313.095,190.782,313.061,190.773,313.041,190.764z M252.42,276.344c0.824,2.391,3.1,8.032,6.742,9.851
	c1.423,0.711,2.871,0.76,4.428,0.151c6.266-2.451,9.207-9.22,10.147-11.885C264.549,277.498,256.077,277.265,252.42,276.344z
	 M377.366,444.764c5.062-0.463,10.56-1.224,16.222-2.446c3.447-0.744,6.797-1.888,10.002-3.282c2.732-1.348,5.434-2.857,8.105-4.512
	l-22.7-89.183c-10.113,16.113-24.963,39.62-35.385,55.452l20.779,44.161C375.374,444.899,376.365,444.838,377.366,444.764z
	 M231.367,196.049c-0.024,0.03-0.043,0.065-0.067,0.095c0.257-0.332,0.536-0.645,0.836-0.938
	C231.862,195.472,231.603,195.751,231.367,196.049z M255.121,296.377c0.354,0.17,0.714,0.324,1.078,0.465
	c-0.369-0.142-0.732-0.298-1.087-0.47C255.115,296.373,255.118,296.375,255.121,296.377z M252.226,341.53
	c-5.011,6.637-9.96,13.229-14.012,18.64C242.267,354.757,247.217,348.164,252.226,341.53z M273.759,313.473
	c0.474-0.588,0.944-1.158,1.41-1.706c-0.251,0.295-0.497,0.585-0.716,0.851C274.268,312.843,274.029,313.138,273.759,313.473z
	 M264.764,297.678c0.794-0.107,1.601-0.255,2.42-0.452C266.361,297.423,265.555,297.571,264.764,297.678z M147.514,188.096
	c0,0-5.55,3.89-2.85,9.238c2.7,5.349,15.45,2.431,15.45,2.431s-2.7,6.321,9.15,6.686c11.85,0.365,9.6-7.05,9.6-7.05
	s6.3,1.337,8.55-0.243s-1.95-4.376-1.95-4.376s12.45,0.851,13.2-8.63s-13.95-7.415-13.95-7.415s0.9-6.199-10.8-9.117
	c-11.7-2.917-15.6,4.619-15.6,4.619s-19.05-1.459-18.75,6.929C139.864,189.555,147.514,188.096,147.514,188.096z M337.416,107.903
	c0,0-8.734,4.528-4.485,10.753c4.249,6.226,24.315,2.83,24.315,2.83c-5.696,9.862,28.35,9.38,29.508-0.424
	c0,0,9.915,1.556,13.456-0.283c3.541-1.84-3.069-5.094-3.069-5.094s19.593,0.99,20.774-10.046
	c1.18-11.036-21.954-8.631-21.954-8.631c1.861-9.479-39.287-15.231-47.565-3.399c0,0-23.962-3.534-23.49,6.229
	C325.376,109.601,337.416,107.903,337.416,107.903z M470.551,378.193l1.65-10.451c0.621-3.93,4.452-7.662,8.514-8.294l10.804-1.68
	c4.062-0.632,6.879,2.067,6.258,5.996l-1.65,10.451c-0.62,3.93-4.452,7.662-8.514,8.294l-10.804,1.68
	C472.746,384.821,469.93,382.123,470.551,378.193z M477.234,381.5l10.804-1.68c2.528-0.393,4.923-2.727,5.309-5.172l1.65-10.451
	c0.386-2.445-1.375-4.132-3.902-3.739l-10.804,1.68c-2.528,0.393-4.923,2.727-5.309,5.172l-1.65,10.451
	C472.945,380.206,474.706,381.893,477.234,381.5z M491.567,365.08c0.85-0.132,1.644-0.906,1.774-1.728
	c0.13-0.822-0.454-1.381-1.304-1.249c-0.85,0.132-1.644,0.906-1.774,1.728C490.134,364.653,490.717,365.213,491.567,365.08z
	 M477.465,372.021c0.565-3.579,4.022-6.946,7.721-7.522l0,0c3.699-0.575,6.24,1.859,5.675,5.438
	c-0.565,3.579-4.022,6.946-7.721,7.522C479.441,378.034,476.9,375.599,477.465,372.021z M483.565,374.769
	c2.164-0.336,4.186-2.306,4.516-4.399c0.331-2.093-1.156-3.517-3.32-3.181s-4.186,2.306-4.516,4.399
	C479.916,373.681,481.402,375.105,483.565,374.769z M477.825,396.202c6.422-1.214,11.628,3.007,11.628,9.429
	s-5.206,12.612-11.628,13.827c-2.34,0.442-4.518,0.163-6.342-0.682v0.001l-4.404,1.961l1.182-4.486
	c-1.301-1.631-2.064-3.766-2.064-6.224C466.197,403.607,471.403,397.416,477.825,396.202z M471.475,408.532
	c0.652,0.995,1.512,2.057,2.554,2.939c2.12,1.793,4.666,2.726,7.617,2.346c1.143-0.147,2.269-1.093,2.77-1.83
	c0.501-0.738,0.489-1.73,0.492-1.967c0.003-0.236-0.186-0.345-0.277-0.371l-2.895-0.82l0,0c0,0-0.115-0.052-0.298-0.017
	c-0.183,0.034-0.345,0.165-0.398,0.273c-0.053,0.107-0.935,1.388-1.123,1.642c-0.189,0.254-0.407,0.295-0.548,0.281
	c-0.142-0.015-0.843-0.1-2.258-0.776s-2.464-2.163-2.677-2.448c-0.212-0.284-0.088-0.52-0.029-0.596
	c0.059-0.076,0.702-0.864,0.943-1.352c0.242-0.488,0.059-0.819,0.059-0.819s-0.973-2.162-1.161-2.522
	c-0.189-0.359-0.507-0.335-0.507-0.335s-0.619,0.035-1.103,0.191c-0.483,0.156-1.279,0.979-1.668,2.09
	C470.579,405.553,470.485,407.021,471.475,408.532z M190.697,237.68c3.574,0.34,6.409,1.406,8.507,3.175
	c2.683,2.25,4.3,5.343,4.851,9.268l-6.327,0.984c-0.363-2.449-1.125-4.335-2.285-5.636c-1.148-1.312-2.73-2.168-4.745-2.59v17.81
	c3.105,0.797,5.156,1.418,6.163,1.851c1.922,0.844,3.48,1.875,4.687,3.093c1.219,1.207,2.144,2.648,2.8,4.323
	c0.645,1.664,0.972,3.48,0.972,5.425c0,4.277-1.359,7.839-4.078,10.709c-2.718,2.859-6.234,4.382-10.545,4.593v6.257h-3.656v-6.187
	c-3.082-0.387-5.589-1.078-7.523-2.074c-1.933-0.996-3.597-2.613-5.003-4.827c-1.406-2.226-2.214-4.933-2.449-8.143l6.187-1.195
	c0.481,3.339,1.324,5.788,2.543,7.347c1.734,2.203,3.82,3.433,6.245,3.691V266.14c-2.543-0.656-5.132-1.734-7.78-3.222
	c-1.969-1.09-3.48-2.613-4.546-4.558c-1.066-1.957-1.594-4.159-1.594-6.632c0-4.394,1.558-7.956,4.663-10.686
	c2.074-1.828,5.168-2.953,9.257-3.363v-2.953h3.656L190.697,237.68L190.697,237.68z M190.697,285.556
	c2.402-0.293,4.382-1.336,5.952-3.128c1.558-1.781,2.343-3.996,2.343-6.62c0-2.25-0.551-4.042-1.664-5.413
	c-1.113-1.359-3.327-2.46-6.632-3.316v18.477H190.697z M187.042,242.812c-2.39,0.363-4.289,1.324-5.659,2.894
	c-1.383,1.558-2.074,3.398-2.074,5.53c0,2.109,0.586,3.878,1.758,5.296c1.172,1.418,3.164,2.496,5.976,3.222L187.042,242.812
	L187.042,242.812z M293.787,147.706V134.99c-1.665-0.43-3.361-1.136-5.095-2.11c-1.289-0.714-2.279-1.711-2.977-2.985
	c-0.698-1.281-1.044-2.724-1.044-4.343c0-2.878,1.021-5.211,3.054-6.999c1.358-1.197,3.384-1.934,6.062-2.202v-1.934h2.394v1.934
	c2.341,0.223,4.198,0.921,5.571,2.08c1.757,1.473,2.816,3.499,3.177,6.07l-4.144,0.645c-0.238-1.604-0.737-2.839-1.497-3.691
	c-0.752-0.859-1.788-1.42-3.108-1.696v11.664c2.034,0.522,3.377,0.929,4.036,1.212c1.258,0.553,2.279,1.228,3.069,2.026
	c0.798,0.79,1.404,1.734,1.834,2.832c0.422,1.09,0.637,2.279,0.637,3.553c0,2.801-0.89,5.134-2.67,7.014
	c-1.78,1.872-4.083,2.87-6.906,3.008v4.098h-2.394v-4.052c-2.018-0.253-3.66-0.706-4.927-1.358
	c-1.266-0.652-2.356-1.711-3.277-3.162c-0.921-1.458-1.45-3.231-1.604-5.333l4.052-0.783c0.315,2.187,0.867,3.791,1.665,4.811
	C290.833,146.731,292.199,147.537,293.787,147.706z M296.181,147.706c1.573-0.192,2.87-0.875,3.898-2.049
	c1.021-1.167,1.535-2.617,1.535-4.336c0-1.473-0.361-2.647-1.09-3.545c-0.729-0.89-2.179-1.611-4.343-2.172L296.181,147.706
	L296.181,147.706z M293.787,130.808v-11.096c-1.565,0.238-2.809,0.867-3.706,1.896c-0.906,1.021-1.358,2.225-1.358,3.622
	c0,1.381,0.384,2.54,1.151,3.469C290.641,129.626,291.946,130.332,293.787,130.808z"></path>
<path id="color_x5F_3" fill="#dfdffa" d="M212.997,391.102c-0.357,0.089-0.743,0.168-1.146,0.24c0.916-0.73,2.183-1.854,2.589-2.777
	c0.482-1.097,0.064-3.697,0.436-4.814c0.647,0.071,1.242,0.196,1.772,0.382c2.038,0.716,2.271,4.468,1.902,8.281
	c-0.017,0.062-0.023,0.126-0.019,0.189c-0.219,2.149-0.623,4.303-0.997,5.929c-0.273-0.298-0.568-0.53-0.877-0.691
	c-0.341-0.176-0.696-0.266-1.055-0.266c-0.706,0-1.321,0.067-1.861,0.151c-0.013-0.047-0.028-0.092-0.04-0.14v-5.438
	c2.682-0.748,3.267-1.76,3.359-1.963c0.136-0.3,0.011-0.666-0.289-0.803c-0.3-0.133-0.646-0.017-0.782,0.282
	C215.985,389.672,215.485,390.483,212.997,391.102z M215.599,415.406c-0.526,0-1.164,0.019-1.846,0.048
	c0.011,0.016,0.014,0.036,0.027,0.051c1.291,1.585,1.488,5.287,0.317,6.346c1.453,0.105,2.625,0.104,3.149-0.01
	c0.575-0.124,0.875-1.155,0.731-2.507C217.778,417.476,216.753,415.406,215.599,415.406z M217.452,413.931
	c0.576-0.124,0.876-1.156,0.731-2.509c-0.199-1.857-1.224-3.927-2.377-3.927c-0.197,0-0.414,0.002-0.641,0.004
	c0.042,0.031,0.071,0.053,0.114,0.086c1.532,1.149-0.902,4.201-1.566,6.308C215.438,414.043,216.857,414.06,217.452,413.931z
	 M312.531,269.648c3.188-1.527,5.444-4.781,6.71-9.673c1.6-6.186,1.656-11.469,0.159-14.875c-0.768-1.745-1.939-2.961-3.391-3.516
	c-1.608-0.613-3.566-0.436-5.665,0.519l-0.13,0.058c-1.692,0.791-3.158,1.727-4.435,2.703c7.697-1.363,12.585,1.648,11.26,10.441
	c-1.397,9.279-7.208,13.379-11.16,14.16c-1.379,0.272-2.554,0.329-3.518,0.297C305.268,270.69,309.128,271.277,312.531,269.648z
	 M217.773,404.715c0.465-0.982,0.231-3.033-0.51-4.479c-0.333-0.649-0.742-1.124-1.153-1.337c-0.173-0.089-0.339-0.132-0.508-0.132
	c-0.503,0-0.948,0.038-1.359,0.091c0.063,0.08,0.127,0.155,0.197,0.207c1.076,0.797-0.343,4.865-0.934,6.412
	c1.657-0.033,3.11-0.137,3.742-0.274C217.329,405.185,217.576,405.132,217.773,404.715z M297.546,363.47
	c-0.059,0.023-0.117,0.049-0.166,0.09c-0.191,0.164-19.291,16.479-35.278,30.515c-3.172,0.534-6.28,1.054-9.253,1.548
	c4.042-3.519,27.946-25.605,25.911-29.618c-2.22-4.38-1.8-5.58-0.9-7.2c0.9-1.62-8.76-12.9-8.94-13.5s9.78,3.24,17.94,7.08
	C293.745,355.625,296.767,361.658,297.546,363.47z M295.987,361.808l-19.834-13.204c-0.274-0.185-0.643-0.107-0.826,0.165
	c-0.182,0.273-0.108,0.644,0.166,0.825l18.23,12.137l-12.363,0.147c-0.329,0.004-0.592,0.274-0.588,0.603
	c0.004,0.326,0.27,0.589,0.595,0.589c0.002,0,0.005,0,0.007,0l14.29-0.171c0.261-0.004,0.489-0.177,0.563-0.427
	S296.204,361.952,295.987,361.808z M219.777,392.226c-0.004,0.042-0.006,0.084-0.01,0.125l0.243,0.227
	C219.927,392.453,219.849,392.336,219.777,392.226z M328.008,268.118c-0.269,0.012-1.268,0.631-2.328,1.438l2.686,0.688
	c0.301,0.077,0.491,0.372,0.439,0.677c-0.214,1.253-1.269,4.263-2.713,8.056c0.839-0.776,2.05-1.355,3.729-0.993
	c2.872,0.619,8.395,2.105,10.854,2.805c0.597-3.698,1.105-6.691,1.3-7.832C336.48,271.024,328.55,268.253,328.008,268.118z
	 M223.14,398.045c0.051-0.169-0.242-0.774-0.682-1.548l-2.855-2.668c-0.357,2.757-0.947,5.186-1.177,6.074
	c0.845,1.788,1.031,4.038,0.423,5.322c-0.293,0.619-0.76,1.014-1.35,1.142c-0.208,0.045-0.479,0.086-0.803,0.123
	c1.475,0.631,2.453,2.772,2.67,4.806c0.222,2.074-0.415,3.529-1.663,3.8c-0.064,0.014-0.133,0.026-0.206,0.037
	c0.908,0.964,1.499,2.55,1.661,4.075c0.042,0.396,0.053,0.768,0.035,1.113l2.96-0.397c0.341-0.725,0.662-2.132,1.105-4.718
	C223.98,411.005,222.96,398.645,223.14,398.045z M391.541,284.124c-9.01-8.229-43.496-10.633-48.398-10.936
	c-0.201,1.177-0.716,4.214-1.318,7.943c0.075,0.026,0.111,0.042,0.056,0.033c-0.648-0.105,45.54,7.8,48.54,22.8
	c2.586,12.931-27.145,75.48-35.398,92.492c11-16.849,25.515-39.876,33.267-52.228c3.854-6.14,6.524-10.421,7.145-11.415l0.139-0.222
	c0.174-0.279,0.542-0.365,0.819-0.19c0.279,0.174,0.364,0.54,0.19,0.819l-0.139,0.223c-0.62,0.995-3.291,5.276-7.146,11.418
	c-0.097,0.155-0.203,0.323-0.301,0.479l22.7,89.183c7.647-4.736,15.029-10.703,22.029-17.834l0.28-0.283
	C432.122,409.344,400.901,292.673,391.541,284.124z M316.268,268.373c-0.951,0.992-2.026,1.776-3.223,2.349
	c-3.041,1.458-6.366,1.316-9.179,0.68l20.124,9.715c1.7-4.363,3.079-8.1,3.524-9.861L316.268,268.373z"></path>
<path id="color_x5F_4" fill="#0062ff" d="M297.675,364.875l6.666,8.729c-0.012,0.023-0.019,0.041-0.03,0.064
	c-0.386,0.765-0.629,1.372-0.722,1.827l-2.376,11.659c-6.301,1.213-14.518,2.697-24.607,4.444c-1.968,0.341-3.948,0.682-5.926,1.02
	c-0.082,0.014-0.164,0.028-0.246,0.042c-2.04,0.349-4.077,0.695-6.096,1.037C278.574,381.222,294.714,367.406,297.675,364.875z
	 M359.336,168.086h16.54v-8.769l-5.606,6.166l-7.267-5.814l2.422-3.488l4.845,4.554l5.606-4.55v-4.641h-16.54V168.086z
	 M296.181,135.604v12.102c1.573-0.192,2.87-0.875,3.898-2.049c1.021-1.167,1.535-2.617,1.535-4.336c0-1.473-0.361-2.647-1.09-3.545
	C299.796,136.886,298.346,136.164,296.181,135.604z M359.336,252.382h16.54v-9.731l-5.606,6.166l-7.267-5.813l2.422-3.488
	l4.845,4.554l5.606-4.55v-3.678h-16.54V252.382z M359.336,196.185h16.54v-9.931l-5.606,6.166l-7.267-5.814l2.422-3.488l4.845,4.554
	l5.606-4.55v-3.478h-16.54V196.185z M359.336,224.284h16.54v-9.058l-5.606,6.166l-7.267-5.814l2.422-3.488l4.845,4.553l5.606-4.55
	v-4.35h-16.54V224.284z M288.722,125.229c0,1.381,0.384,2.54,1.151,3.469c0.767,0.928,2.072,1.634,3.914,2.11v-11.096
	c-1.565,0.238-2.809,0.867-3.706,1.896C289.175,122.628,288.722,123.833,288.722,125.229z M64.759,486.583
	c-2.369,0.308-5.467,2.066-8.152,4.825c-0.941,4.018-1.523,8.235-1.694,12.696c0.597-2.866,1.727-5.753,3.731-7.821
	C63.774,490.99,69.773,485.931,64.759,486.583z M79.813,500.851c-2.929,3.849-7.024,6.748-11.496,8.293
	c0.836-3.454,2.241-7.583,4.472-9.869c4.313-4.419,9.6-3.311,6.847-8.038s-12.417,1.255-13.422,8.604
	c-0.63,4.607-0.775,8.12-0.795,10.101c-3.498,0.722-7.115,0.596-10.51-0.531c0.221,6.278,1.249,13.044,3.245,20.424h13.828v-9.053
	c0-0.329,0.267-0.596,0.595-0.596h30.518c-0.27-2.337-2.18-15.748-11.355-27.417C89.902,492.54,85.683,493.138,79.813,500.851z
	 M80.321,469.897c3.647-4.416,0.489-15.876-0.494-19.844c-1.555,1.916-3.079,3.83-4.559,5.749c-0.415,2.483-1.148,4.872-2.411,6.598
	C68.732,468.038,76.113,474.993,80.321,469.897z M190.697,267.078v18.478c2.402-0.293,4.382-1.336,5.952-3.128
	c1.558-1.781,2.343-3.996,2.343-6.62c0-2.25-0.551-4.042-1.664-5.413C196.216,269.035,194.002,267.933,190.697,267.078z
	 M181.382,245.706c-1.383,1.558-2.074,3.398-2.074,5.53c0,2.109,0.586,3.878,1.758,5.296c1.172,1.418,3.164,2.496,5.976,3.222
	v-16.943C184.651,243.175,182.753,244.136,181.382,245.706z M536.222,529.835h-45.891v-9.003L523.05,340.12
	c0.018-0.098,0.023-0.193,0.038-0.29c0.035-0.227,0.068-0.453,0.088-0.671c0.011-0.126,0.013-0.249,0.019-0.373
	c0.01-0.195,0.018-0.389,0.016-0.577c-0.001-0.125-0.008-0.247-0.015-0.37c-0.01-0.182-0.024-0.361-0.044-0.536
	c-0.014-0.122-0.03-0.243-0.049-0.363c-0.009-0.055-0.013-0.114-0.023-0.168c-0.012-0.062-0.034-0.117-0.047-0.178
	c-0.056-0.269-0.125-0.531-0.208-0.786c-0.029-0.088-0.056-0.177-0.088-0.263c-0.098-0.266-0.212-0.523-0.34-0.773
	c-0.027-0.053-0.05-0.11-0.078-0.162c-0.307-0.562-0.686-1.079-1.146-1.538c-0.016-0.016-0.033-0.028-0.049-0.043
	c-0.006-0.006-0.01-0.013-0.016-0.018c-0.023-0.023-0.05-0.039-0.074-0.062c-0.193-0.182-0.396-0.351-0.608-0.506
	c-0.062-0.046-0.125-0.088-0.189-0.132c-0.196-0.134-0.398-0.257-0.606-0.368c-0.055-0.029-0.109-0.061-0.164-0.089
	c-0.538-0.269-1.105-0.462-1.683-0.568c-0.005-0.001-0.009-0.003-0.014-0.004c-0.011-0.002-0.022-0.001-0.033-0.003
	c-0.3-0.053-0.601-0.079-0.902-0.084c-0.052-0.001-0.104-0.003-0.156-0.002c-0.315,0.003-0.628,0.023-0.936,0.081l-99.261,18.343
	c-9.192-30.98-19.298-61.95-24.139-66.372c-0.008-0.007-0.017-0.013-0.025-0.02c-0.258-0.234-0.54-0.462-0.834-0.686
	c-0.083-0.063-0.169-0.126-0.255-0.189c-0.269-0.196-0.551-0.39-0.847-0.579c-0.05-0.032-0.097-0.065-0.149-0.097
	c-0.369-0.231-0.759-0.457-1.166-0.678c-0.032-0.018-0.066-0.035-0.099-0.052c-0.406-0.218-0.83-0.431-1.27-0.64
	c-0.013-0.006-0.025-0.012-0.038-0.018c-3.451-1.629-7.884-2.958-12.627-4.033c-4.328-0.981-8.914-1.755-13.233-2.36
	c-0.099-0.014-0.197-0.027-0.295-0.041c-0.487-0.068-0.97-0.133-1.45-0.196c-0.134-0.018-0.269-0.036-0.403-0.054
	c-0.483-0.063-0.961-0.123-1.434-0.182c-0.273-0.034-0.542-0.067-0.811-0.099c-0.206-0.025-0.409-0.049-0.612-0.073
	c-6.873-0.814-12.35-1.173-13.793-1.259l-0.237-0.014c-1.734-0.61-13.69-4.815-14.469-5.01c-0.873-0.215-2.666,1.064-4.066,2.222
	l-7.09-1.817c0.681-0.878,1.308-1.914,1.864-3.125c0.011-0.024,0.021-0.05,0.033-0.075c0.254-0.558,0.494-1.15,0.716-1.785
	c0.016-0.045,0.03-0.093,0.045-0.139c0.208-0.606,0.402-1.243,0.579-1.921c0.005-0.018,0.011-0.033,0.015-0.051
	c0.214-0.827,0.399-1.635,0.56-2.425c0-0.003,0.001-0.005,0.001-0.007c0.933-4.585,0.971-8.523,0.113-11.582
	c-0.138-0.497-0.298-0.966-0.479-1.406c1.255-3.264,13.265-35.05,8.826-44.7c-0.252-0.547-0.538-1.047-0.838-1.526
	c-2.723-4.36-7.241-5.998-10.818-6.829c-0.907-0.213-1.747-0.371-2.469-0.508c-0.833-0.157-1.742-0.332-2.171-0.499
	c-0.023-0.009-0.057-0.018-0.077-0.027c0.009-0.015,0.015-0.037,0.024-0.052c0.061-0.11,0.117-0.237,0.171-0.374
	c0.213-0.527,0.347-1.213,0.37-1.999c0.004-0.118,0.004-0.238,0.002-0.359c-0.002-0.137-0.004-0.271-0.013-0.412
	c-0.01-0.168-0.024-0.338-0.046-0.511c-0.007-0.054-0.02-0.11-0.028-0.164c-0.019-0.128-0.041-0.255-0.066-0.384
	c-0.037-0.197-0.085-0.396-0.138-0.598c-0.03-0.115-0.058-0.228-0.093-0.344c-0.087-0.284-0.19-0.571-0.312-0.858
	c-0.023-0.053-0.045-0.106-0.068-0.159c-0.115-0.257-0.241-0.514-0.387-0.769c-0.02-0.034-0.046-0.068-0.066-0.102
	c-0.021-0.036-0.035-0.073-0.056-0.109c-0.273-0.45-0.613-0.904-1.014-1.351c-0.032-0.036-0.066-0.071-0.099-0.107
	c-0.217-0.234-0.452-0.465-0.71-0.691c-0.006-0.005-0.011-0.01-0.016-0.015c-1.439-1.255-3.547-2.342-6.612-2.885
	c-0.059-0.011-0.118-0.021-0.178-0.032c-0.276-0.046-0.557-0.089-0.848-0.126c-0.096-0.012-0.198-0.022-0.296-0.033
	c-0.448-0.052-0.914-0.092-1.399-0.121c-0.216-0.013-0.433-0.025-0.656-0.034c-0.232-0.008-0.468-0.015-0.708-0.018
	c-0.357-0.005-0.724-0.003-1.098,0.005c-0.204,0.004-0.409,0.01-0.618,0.018c-0.434,0.016-0.88,0.041-1.337,0.074
	c-0.18,0.013-0.362,0.027-0.546,0.043c-0.554,0.047-1.119,0.103-1.707,0.176c-0.028,0.003-0.052,0.005-0.08,0.008
	c-9.796,1.225-20.691,5.085-30.304,8.491c-9.368,3.32-17.459,6.186-21.499,5.492c-0.017-0.003-0.033-0.003-0.049-0.006
	c-0.494-0.083-0.983-0.133-1.467-0.167c-0.128-0.009-0.255-0.018-0.383-0.024c-0.471-0.02-0.937-0.02-1.394,0.005
	c-0.127,0.007-0.25,0.022-0.375,0.032c-0.372,0.031-0.738,0.077-1.098,0.138c-0.124,0.021-0.25,0.036-0.372,0.061
	c-0.412,0.083-0.812,0.19-1.203,0.311c-0.148,0.046-0.294,0.095-0.439,0.147c-0.378,0.134-0.748,0.279-1.101,0.449
	c-0.136,0.065-0.262,0.143-0.394,0.214c-0.267,0.143-0.528,0.293-0.778,0.456c-0.144,0.094-0.283,0.193-0.422,0.294
	c-0.245,0.179-0.477,0.37-0.701,0.569c-0.098,0.088-0.202,0.169-0.296,0.261c-0.274,0.266-0.533,0.545-0.77,0.843
	c-0.024,0.03-0.043,0.065-0.067,0.095c-0.021,0.028-0.049,0.05-0.07,0.079c-0.06,0.079-0.101,0.167-0.158,0.248
	c-0.158,0.225-0.308,0.456-0.444,0.696c-0.087,0.153-0.168,0.308-0.245,0.465c-0.098,0.201-0.185,0.408-0.267,0.618
	c-0.073,0.185-0.149,0.368-0.209,0.558c-0.058,0.185-0.099,0.379-0.146,0.571c-0.068,0.278-0.131,0.558-0.172,0.845
	c-0.04,0.276-0.067,0.558-0.083,0.846c-0.008,0.154-0.017,0.308-0.018,0.465c-0.003,0.361,0.013,0.73,0.049,1.107
	c0.013,0.137,0.035,0.275,0.053,0.413c0.044,0.331,0.103,0.666,0.178,1.008c0.023,0.104,0.04,0.207,0.065,0.312
	c0.102,0.417,0.235,0.843,0.385,1.275c0.047,0.135,0.097,0.27,0.148,0.405c0.155,0.409,0.327,0.822,0.526,1.243
	c0.019,0.041,0.032,0.081,0.052,0.122c0.268,0.556,0.587,1.149,0.95,1.761c0.032,0.054,0.065,0.106,0.097,0.16
	c0.302,0.5,0.637,1.012,1.009,1.533c0.058,0.081,0.118,0.162,0.177,0.243c0.352,0.479,0.734,0.963,1.152,1.45
	c0.046,0.053,0.093,0.106,0.139,0.159c2.41,2.759,5.922,5.537,11.039,7.479c-0.034,0.14-0.095,0.403-0.175,0.757
	c-0.47,2.069-1.649,7.718-2.512,15.7c-0.149,0.248-0.298,0.498-0.445,0.765c-0.266,0.482-0.15,1.053,0.224,1.421
	c-0.664,6.977-1.043,15.48-0.541,24.798c0.129,2.43,0.318,4.912,0.579,7.433c0.102,0.986,0.223,1.936,0.355,2.869
	c0.021,0.15,0.046,0.294,0.068,0.443c0.115,0.779,0.241,1.539,0.378,2.28c0.028,0.151,0.057,0.301,0.086,0.451
	c0.15,0.778,0.311,1.535,0.484,2.271c0.014,0.058,0.027,0.118,0.041,0.176c1.628,6.796,4.286,11.738,7.945,14.775
	c0.123,0.103,0.246,0.207,0.371,0.305c0.187,0.146,0.378,0.286,0.57,0.423c0.185,0.132,0.371,0.257,0.56,0.379
	c0.163,0.105,0.325,0.211,0.491,0.31c0.273,0.162,0.55,0.311,0.83,0.454c0.085,0.044,0.166,0.096,0.252,0.138
	c0.015,0.007,0.031,0.012,0.045,0.02c0.003,0.002,0.006,0.003,0.009,0.005c0.354,0.17,0.714,0.324,1.078,0.465
	c0.12,0.046,0.245,0.084,0.366,0.128c0.269,0.096,0.54,0.188,0.815,0.269c0.128,0.037,0.259,0.07,0.389,0.104
	c0.284,0.075,0.569,0.143,0.858,0.202c0.117,0.024,0.234,0.046,0.352,0.067c0.326,0.059,0.656,0.107,0.99,0.147
	c0.084,0.01,0.167,0.021,0.251,0.03c1.243,0.127,2.528,0.127,3.854-0.01c0.083-0.009,0.168-0.027,0.251-0.036
	c0.144-0.017,0.292-0.043,0.438-0.063c0.794-0.107,1.601-0.255,2.42-0.452c0.078-0.019,0.154-0.032,0.232-0.051
	c0.337-0.084,0.678-0.185,1.019-0.284c0.232-0.067,0.462-0.13,0.695-0.203c0.311-0.098,0.624-0.207,0.938-0.317
	c0.274-0.096,0.549-0.193,0.827-0.298c0.292-0.111,0.585-0.227,0.879-0.347c0.313-0.128,0.629-0.262,0.945-0.402
	c0.269-0.118,0.538-0.237,0.808-0.364c0.362-0.168,0.727-0.348,1.093-0.531c0.234-0.117,0.467-0.231,0.703-0.354
	c0.448-0.234,0.901-0.484,1.355-0.739c0.159-0.089,0.317-0.172,0.477-0.264c0.627-0.361,1.259-0.739,1.897-1.141
	c0.463-0.292,0.916-0.583,1.359-0.874l13.142,5.982c-2.912,1.194-9.94,4.837-18.23,14.542c-0.05,0.059-0.102,0.125-0.152,0.184
	c-0.251,0.295-0.497,0.585-0.716,0.851c-0.186,0.225-0.425,0.52-0.694,0.855c-0.062,0.077-0.123,0.146-0.185,0.224
	c-4.694,5.873-13.089,16.892-21.349,27.832c-5.011,6.637-9.96,13.229-14.012,18.64c-4.513,6.025-7.914,10.585-9.004,12.047
	l-15.551-12.615v-4.537h-0.001c0-0.063-0.01-0.128-0.031-0.191c-0.006-0.016-0.018-0.028-0.025-0.043
	c-0.013-0.031-0.03-0.056-0.049-0.084c-0.031-0.048-0.066-0.089-0.109-0.126c-0.014-0.012-0.02-0.03-0.035-0.04
	c-0.012-0.008-0.027-0.008-0.039-0.016c-0.049-0.03-0.101-0.049-0.157-0.064c-0.029-0.008-0.056-0.02-0.086-0.023
	c-0.072-0.008-0.145,0-0.219,0.02c-0.012,0.003-0.025-0.001-0.036,0.003l-3.936,1.333l-33.726-27.427l-0.142-0.354
	c-1.219-3.036-4.175-10.275-6.874-15.946c-0.013-0.027-0.026-0.054-0.039-0.081c-0.118-0.249-0.237-0.494-0.354-0.736
	c-0.048-0.098-0.095-0.195-0.142-0.292c-0.086-0.175-0.171-0.349-0.256-0.52c-0.065-0.131-0.129-0.26-0.194-0.388
	c-0.067-0.133-0.133-0.266-0.2-0.396c-0.077-0.151-0.153-0.3-0.229-0.447c-0.054-0.105-0.108-0.209-0.162-0.312
	c-0.081-0.156-0.162-0.309-0.242-0.459c-0.049-0.091-0.097-0.18-0.145-0.27c-0.081-0.149-0.161-0.296-0.24-0.438
	c-0.048-0.086-0.095-0.169-0.142-0.253c-0.076-0.135-0.152-0.269-0.227-0.397c-0.049-0.084-0.096-0.163-0.144-0.244
	c-0.071-0.119-0.141-0.238-0.21-0.349c-0.05-0.082-0.099-0.158-0.148-0.235c-0.063-0.099-0.126-0.199-0.187-0.292
	c-0.055-0.083-0.108-0.158-0.161-0.236c-0.053-0.076-0.106-0.156-0.157-0.227c-0.061-0.085-0.12-0.159-0.178-0.234
	c-0.04-0.051-0.081-0.107-0.119-0.154c-0.074-0.09-0.144-0.166-0.213-0.24c-0.021-0.023-0.044-0.051-0.065-0.072
	c-0.09-0.091-0.175-0.169-0.256-0.23c-0.038-0.029-0.083-0.066-0.122-0.097c-0.152-0.117-0.308-0.24-0.479-0.383
	c-0.045-0.037-0.095-0.081-0.14-0.12c-0.183-0.155-0.372-0.318-0.573-0.497c-0.031-0.028-0.064-0.059-0.096-0.087
	c-0.222-0.201-0.453-0.413-0.691-0.64c-0.025-0.024-0.051-0.049-0.077-0.073c-0.247-0.236-0.501-0.485-0.761-0.745
	c-0.025-0.025-0.05-0.05-0.074-0.075c-0.261-0.263-0.527-0.537-0.796-0.821c-0.027-0.028-0.054-0.056-0.081-0.085
	c-0.277-0.294-0.557-0.598-0.838-0.91c-0.016-0.018-0.032-0.035-0.048-0.053c-0.299-0.333-0.597-0.675-0.893-1.024
	c-0.006-0.007-0.011-0.014-0.017-0.02c-0.267-0.316-0.531-0.638-0.791-0.963c-0.471-0.589-0.927-1.189-1.354-1.792
	c-0.01-0.014-0.019-0.028-0.029-0.043c-0.201-0.285-0.395-0.57-0.581-0.854c-0.042-0.064-0.082-0.128-0.123-0.192
	c-0.15-0.233-0.295-0.466-0.434-0.697c-0.051-0.085-0.101-0.171-0.151-0.256c-0.122-0.209-0.236-0.417-0.347-0.623
	c-0.05-0.094-0.102-0.189-0.15-0.283c-0.103-0.202-0.197-0.401-0.288-0.599c-0.041-0.089-0.086-0.179-0.124-0.268
	c-0.111-0.257-0.21-0.509-0.297-0.757c-0.008-0.021-0.018-0.044-0.025-0.065c-0.004-0.01-0.008-0.018-0.012-0.029
	c-0.121-0.349-0.259-0.673-0.407-0.98c-0.052-0.108-0.108-0.204-0.162-0.306c-0.108-0.201-0.22-0.391-0.339-0.57
	c-0.063-0.094-0.125-0.186-0.19-0.273c-0.131-0.176-0.268-0.336-0.41-0.486c-0.053-0.056-0.104-0.118-0.158-0.17
	c-0.264-0.254-0.544-0.456-0.836-0.617c-0.099-0.054-0.197-0.109-0.297-0.151c-0.087-0.037-0.176-0.065-0.265-0.093
	c-0.1-0.032-0.2-0.059-0.301-0.08c-0.082-0.017-0.164-0.033-0.247-0.043c-0.145-0.017-0.289-0.02-0.434-0.014
	c-0.037,0.002-0.073-0.007-0.111-0.003c-0.008,0.001-0.015,0.004-0.023,0.005c-0.179,0.016-0.356,0.055-0.531,0.106
	c-0.095,0.027-0.186,0.064-0.278,0.101c-0.075,0.031-0.148,0.064-0.222,0.102c-0.113,0.057-0.225,0.116-0.333,0.188
	c-0.011,0.007-0.021,0.017-0.032,0.024c-0.584,0.399-1.082,1.016-1.474,1.818c-0.027,0.055-0.052,0.112-0.078,0.169
	c-0.121,0.265-0.229,0.548-0.326,0.85c-0.025,0.077-0.052,0.15-0.075,0.23c-0.112,0.381-0.211,0.78-0.283,1.211
	c-0.056,0.331-0.097,0.651-0.132,0.965c-0.003,0.025-0.008,0.051-0.01,0.076c-0.023,0.216-0.034,0.422-0.047,0.63
	c-0.008,0.128-0.022,0.259-0.027,0.384c-0.007,0.18-0.004,0.351-0.005,0.524c0,0.144-0.004,0.29,0,0.43
	c0.005,0.162,0.018,0.316,0.029,0.473c0.01,0.141,0.017,0.284,0.031,0.422c0.016,0.156,0.039,0.306,0.06,0.456
	c0.018,0.126,0.034,0.253,0.056,0.376c0.028,0.16,0.063,0.313,0.097,0.467c0.023,0.102,0.044,0.206,0.07,0.306
	c0.043,0.17,0.092,0.334,0.142,0.496c0.023,0.073,0.044,0.148,0.068,0.22c0.061,0.185,0.128,0.362,0.197,0.537
	c0.011,0.029,0.021,0.06,0.032,0.088c0.003,0.008,0.008,0.015,0.012,0.024c0.771,1.884,1.971,3.203,3.025,4.164
	c1.451,1.323,2.659,2.865,3.293,3.732c-0.402,0.023-0.806,0.058-1.21,0.096c-0.042,0.004-0.083,0.006-0.125,0.01
	c-0.358,0.034-0.714,0.077-1.07,0.121c-0.099,0.012-0.199,0.022-0.297,0.035c-0.354,0.046-0.702,0.097-1.05,0.15
	c-0.094,0.014-0.189,0.027-0.282,0.042c-0.359,0.057-0.708,0.116-1.056,0.178c-0.047,0.008-0.097,0.016-0.144,0.024
	c-0.021,0.004-0.04,0.008-0.062,0.012c-1.923,0.35-3.633,0.758-4.798,1.063c-0.119,0.031-0.267,0.078-0.426,0.135
	c-0.044,0.015-0.085,0.029-0.132,0.047c-0.029,0.011-0.06,0.025-0.09,0.037c-0.644,0.256-1.528,0.742-2.249,1.688
	c-0.248,0.325-0.474,0.705-0.664,1.145c-0.008,0.017-0.013,0.038-0.02,0.055c-0.082,0.196-0.16,0.4-0.225,0.621
	c-0.047,0.156-0.081,0.328-0.118,0.497c-0.02,0.093-0.047,0.177-0.064,0.273c-0.199,1.108-0.188,2.479,0.165,4.179
	c-0.073,0.118-0.13,0.246-0.193,0.371c-0.037,0.073-0.08,0.141-0.113,0.216c-0.063,0.144-0.111,0.297-0.161,0.449
	c-0.022,0.069-0.051,0.133-0.071,0.204c-0.046,0.164-0.077,0.337-0.108,0.51c-0.012,0.069-0.03,0.133-0.041,0.204
	c-0.026,0.181-0.038,0.371-0.049,0.562c-0.004,0.065-0.014,0.124-0.016,0.19c0,0.009,0.001,0.019,0.001,0.028
	c-0.005,0.202,0.004,0.414,0.015,0.627c0.004,0.075,0.002,0.145,0.008,0.221c0.018,0.232,0.051,0.475,0.087,0.72
	c0.01,0.066,0.014,0.128,0.026,0.196c0.049,0.29,0.112,0.591,0.186,0.899c0.007,0.03,0.011,0.058,0.019,0.088
	c0.086,0.347,0.185,0.704,0.303,1.074c-0.714,1.724-0.44,3.203-0.071,4.432c0.35,1.168,1.536,2.298,2.052,2.749
	c-0.007,0.204,0,0.429,0.017,0.664c0.004,0.062,0.014,0.125,0.021,0.188c0.017,0.166,0.039,0.333,0.072,0.508
	c0.015,0.08,0.035,0.159,0.054,0.239c0.037,0.162,0.082,0.323,0.137,0.489c0.027,0.081,0.058,0.161,0.089,0.242
	c0.062,0.163,0.135,0.325,0.217,0.49c0.02,0.04,0.032,0.081,0.053,0.12c0.025,0.047,0.06,0.091,0.087,0.137
	c0.077,0.134,0.159,0.266,0.252,0.399c0.066,0.094,0.14,0.185,0.213,0.277c0.099,0.124,0.198,0.246,0.313,0.367
	c0.096,0.101,0.207,0.197,0.315,0.295c0.116,0.106,0.226,0.212,0.357,0.314c0.17,0.132,0.364,0.254,0.558,0.376
	c0.091,0.057,0.163,0.12,0.26,0.175c4.094,2.334,15.465,3.585,17.423,3.786L178.896,366l-11.524,3.901
	c-0.028,0.009-0.05,0.027-0.076,0.04c-0.025,0.013-0.051,0.022-0.073,0.038c-0.033,0.023-0.06,0.053-0.088,0.082
	c-0.015,0.016-0.032,0.029-0.046,0.047c-0.028,0.037-0.048,0.079-0.067,0.122c-0.006,0.015-0.016,0.027-0.022,0.043
	c-0.021,0.061-0.033,0.125-0.033,0.192v72.839c0,0.306,0.232,0.562,0.537,0.593l45.546,4.512c0.019,0.002,0.039,0.003,0.058,0.003
	h0.001c0.008,0,0.015-0.004,0.023-0.005c0.068-0.003,0.134-0.015,0.196-0.04c0.037-0.015,0.066-0.04,0.099-0.061
	c0.026-0.017,0.056-0.028,0.08-0.049c0.003-0.003,0.004-0.006,0.007-0.009c0.055-0.051,0.099-0.113,0.131-0.181
	c0.002-0.004,0.006-0.007,0.007-0.011c0.033-0.074,0.052-0.154,0.052-0.24V423.01c0.316,0.025,0.693,0.05,1.09,0.07
	c0.004,0,0.008,0,0.013,0.001c0.66,0.033,1.37,0.047,1.961,0.009c0.006,0,0.01-0.001,0.016-0.001
	c0.133-0.009,0.261-0.019,0.378-0.034c0.068-0.008,0.123-0.019,0.183-0.029c0.05-0.008,0.108-0.015,0.154-0.024
	c0,0,0.001,0,0.001-0.001l0,0c0.008-0.002,0.015-0.007,0.023-0.009c0.164-0.038,0.319-0.094,0.461-0.172
	c0.469-0.253,0.794-0.701,0.99-1.272l8.137-1.09c2.885,0.142,36.665,1.769,66.984,1.617l-20.05,98.108H110.393
	c-0.092-1.661-0.418-11.155,3.032-22.748c1.363-1.22,5.427-3.757,14.605-2.063c4.321,0.797,9.303,0.246,14.054-1.446
	c-2.238-1.809-5.282-3.724-8.297-3.898c-5.83-0.336-10.196,3.634-9.691-1.22s11.897-6.732,15.949-2.411
	c2.539,2.709,4.169,4.979,5.031,6.297c3.706-1.742,7.139-4.192,9.837-7.243c-1.829-2.68-5.053-5.791-9.458-6.06
	c-6.95-0.424-14.595-0.161-9.728-2.783s15.486-2.926,20.154,3.054c0.704,0.902,1.38,1.409,2.017,1.617
	c0.942-1.671,1.678-3.466,2.156-5.375c0.454-1.81,0.882-3.42,1.292-4.857c-3.058-1.536-8.847-3.138-14.028-2.731
	c-7.26,0.57-2.505-7.834,6.761-6.296c3.92,0.651,6.941,1.958,9.318,2.836c1.718-4.258,3.222-5.49,5.126-6.373
	c2.31-1.071-5.024-11.324-19.749-14.152c1.118,5.296-3.542,11.07-8.167,11.232c-4.962,0.173-1.518-9.75,1.031-11.297
	c0.367-0.222,0.676-0.431,0.938-0.625c-2.867-0.101-5.943,0.081-9.22,0.636c-3.417,0.579-6.566,1.464-9.445,2.589
	c3.304,1.63,7.674,4.296,9.206,7.55c2.583,5.488-5.915,10.401-9.463,4.51c-2.229-3.701-3.879-7.431-4.798-9.693
	c-3.957,2.188-7.241,4.87-9.824,7.814c1.648,2.885,4.834,7.411,8.979,8.263c6.177,1.269,2.387,10.441-3.636,9.587
	c-5.537-0.785-7.444-11.573-8.136-14.154c-3.305,5.127-4.681,10.701-4.011,15.679c3.72,0.732,8.347,1.23,9.787,3.458
	c2.175,3.365-3.681,5.855-7.057,4.164c3.719,7.653,6.224,11.594,7.298,13.156c-3.418,11.555-3.155,21.048-3.056,22.98h-4.91
	c-0.221-2.01-2.062-15.857-11.487-27.969c0.073-2.025,0.142-7.953-0.793-19.316c-1.769,4.126-7.479,5.605-7.449,0.566
	c0.02-3.337,3.33-7.087,5.831-10.448c-1.854-5.507-5.471-10.243-10.281-13.316c14.251-17.521,31.012-35.401,40.298-61.546
	c19.182-54.013-38.023-130.487-19.549-194.454c45.282-156.787,299.57-180.168,403.2-24.679
	C603.102,317.629,541.841,512.84,536.222,529.835z M178.864,199.401c0,0,6.3,1.337,8.55-0.243s-1.95-4.376-1.95-4.376
	s12.45,0.851,13.2-8.63s-13.95-7.415-13.95-7.415s0.9-6.199-10.8-9.117c-11.7-2.917-15.6,4.619-15.6,4.619s-19.05-1.459-18.75,6.929
	c0.3,8.387,7.95,6.929,7.95,6.929s-5.55,3.89-2.85,9.238c2.7,5.349,15.45,2.431,15.45,2.431s-2.7,6.321,9.15,6.686
	C181.114,206.816,178.864,199.401,178.864,199.401z M205.32,275.385c0-1.945-0.328-3.761-0.972-5.425
	c-0.656-1.676-1.582-3.117-2.8-4.323c-1.207-1.219-2.765-2.25-4.687-3.093c-1.008-0.434-3.058-1.055-6.163-1.851v-17.81
	c2.015,0.422,3.597,1.277,4.745,2.59c1.16,1.3,1.922,3.187,2.285,5.636l6.327-0.984c-0.551-3.925-2.168-7.019-4.851-9.268
	c-2.097-1.769-4.933-2.836-8.507-3.175v-2.953h-3.656v2.953c-4.089,0.41-7.183,1.535-9.257,3.363
	c-3.105,2.73-4.663,6.292-4.663,10.686c0,2.472,0.527,4.675,1.594,6.632c1.066,1.945,2.578,3.468,4.546,4.558
	c2.648,1.488,5.237,2.566,7.78,3.222v19.415c-2.426-0.258-4.511-1.488-6.245-3.691c-1.219-1.558-2.062-4.007-2.543-7.347
	l-6.187,1.195c0.234,3.21,1.043,5.917,2.449,8.143c1.406,2.214,3.07,3.831,5.003,4.827s4.441,1.687,7.523,2.074v6.187h3.656v-6.257
	c4.312-0.211,7.827-1.734,10.545-4.593C203.961,283.224,205.32,279.662,205.32,275.385z M305.758,141.045
	c0-1.274-0.215-2.463-0.637-3.553c-0.43-1.097-1.036-2.041-1.834-2.832c-0.79-0.798-1.811-1.473-3.069-2.026
	c-0.66-0.284-2.003-0.691-4.036-1.212v-11.664c1.32,0.276,2.356,0.836,3.108,1.696c0.76,0.852,1.259,2.087,1.497,3.691l4.144-0.645
	c-0.361-2.571-1.42-4.597-3.177-6.07c-1.374-1.159-3.231-1.857-5.571-2.08v-1.934h-2.394v1.934
	c-2.678,0.269-4.704,1.005-6.062,2.202c-2.033,1.788-3.054,4.121-3.054,6.999c0,1.619,0.345,3.062,1.044,4.343
	c0.698,1.274,1.688,2.272,2.977,2.985c1.734,0.974,3.43,1.68,5.095,2.11v12.716c-1.589-0.169-2.954-0.975-4.09-2.417
	c-0.798-1.021-1.351-2.624-1.665-4.811l-4.052,0.783c0.154,2.103,0.683,3.875,1.604,5.333c0.921,1.45,2.011,2.509,3.277,3.162
	c1.266,0.652,2.908,1.105,4.927,1.358v4.052h2.394v-4.098c2.824-0.138,5.126-1.136,6.906-3.008
	C304.868,146.179,305.758,143.846,305.758,141.045z M386.742,230.699l-9.675,7.853v-3.306c0-0.329-0.267-0.595-0.596-0.595H358.74
	c-0.329,0-0.596,0.267-0.596,0.595v17.731c0,0.329,0.267,0.595,0.596,0.595h17.731c0.329,0,0.596-0.267,0.596-0.595v-11.636
	L386.742,230.699z M386.742,203.272l-9.675,7.853v-3.978c0-0.329-0.267-0.595-0.596-0.595H358.74c-0.329,0-0.596,0.267-0.596,0.595
	v17.731c0,0.329,0.267,0.595,0.596,0.595h17.731c0.329,0,0.596-0.267,0.596-0.595v-10.964L386.742,203.272z M386.742,174.301
	l-9.675,7.854v-3.106c0-0.329-0.267-0.595-0.596-0.595H358.74c-0.329,0-0.596,0.267-0.596,0.595v17.731
	c0,0.329,0.267,0.595,0.596,0.595h17.731c0.329,0,0.596-0.267,0.596-0.595v-11.837L386.742,174.301z M386.742,147.365l-9.675,7.854
	v-4.269c0-0.329-0.267-0.595-0.596-0.595H358.74c-0.329,0-0.596,0.267-0.596,0.595v17.732c0,0.329,0.267,0.595,0.596,0.595h17.731
	c0.329,0,0.596-0.267,0.596-0.595v-10.674L386.742,147.365z M400.209,120.778c3.541-1.84-3.069-5.094-3.069-5.094
	s19.593,0.99,20.774-10.046c1.18-11.036-21.954-8.631-21.954-8.631c1.861-9.479-39.287-15.231-47.565-3.399
	c0,0-23.962-3.534-23.49,6.229c0.472,9.763,12.511,8.065,12.511,8.065s-8.734,4.528-4.485,10.753
	c4.249,6.226,24.315,2.83,24.315,2.83c-5.696,9.862,28.35,9.38,29.508-0.424C386.753,121.062,396.668,122.618,400.209,120.778z
	 M461.201,248.617c0-0.329-0.267-0.595-0.596-0.595h-71.828c-0.329,0-0.596,0.267-0.596,0.595s0.267,0.595,0.596,0.595h71.828
	C460.935,249.212,461.201,248.946,461.201,248.617z M484.401,239.607c0-0.329-0.267-0.595-0.596-0.595h-95.028
	c-0.329,0-0.596,0.267-0.596,0.595s0.267,0.595,0.596,0.595h95.028C484.135,240.203,484.401,239.936,484.401,239.607z
	 M388.777,221.113h71.828c0.329,0,0.596-0.267,0.596-0.595s-0.267-0.595-0.596-0.595h-71.828c-0.329,0-0.596,0.267-0.596,0.595
	S388.448,221.113,388.777,221.113z M484.401,211.509c0-0.329-0.267-0.595-0.596-0.595h-95.028c-0.329,0-0.596,0.267-0.596,0.595
	s0.267,0.595,0.596,0.595h95.028C484.135,212.104,484.401,211.837,484.401,211.509z M388.777,193.014h71.828
	c0.329,0,0.596-0.267,0.596-0.595s-0.267-0.595-0.596-0.595h-71.828c-0.329,0-0.596,0.267-0.596,0.595
	S388.448,193.014,388.777,193.014z M484.401,183.41c0-0.329-0.267-0.595-0.596-0.595h-95.028c-0.329,0-0.596,0.267-0.596,0.595
	s0.267,0.595,0.596,0.595h95.028C484.135,184.005,484.401,183.738,484.401,183.41z M388.777,164.916h71.828
	c0.329,0,0.596-0.267,0.596-0.595s-0.267-0.595-0.596-0.595h-71.828c-0.329,0-0.596,0.267-0.596,0.595
	S388.448,164.916,388.777,164.916z M484.401,155.311c0-0.329-0.267-0.595-0.596-0.595h-95.028c-0.329,0-0.596,0.267-0.596,0.595
	s0.267,0.595,0.596,0.595h95.028C484.135,155.906,484.401,155.639,484.401,155.311z"></path>
<path id="color_x5F_5" fill="#cdcdda" d="M488.082,370.369c-0.33,2.093-2.352,4.063-4.516,4.399s-3.65-1.087-3.32-3.181
	c0.331-2.093,2.352-4.063,4.516-4.399S488.412,368.276,488.082,370.369z M511.403,343.113l-30.245,167.4H457.84
	c0.489-4.044,2.797-25.276-0.763-38.847c-3.833-14.61-20.989-53.334-21.837-55.246c-0.621-2.341-7.465-28.064-15.683-56.335
	L511.403,343.113z M489.453,405.631c0-6.422-5.206-10.644-11.628-9.429c-6.422,1.214-11.628,7.405-11.628,13.827
	c0,2.457,0.763,4.592,2.064,6.224l-1.182,4.486l4.404-1.961v-0.001c1.824,0.844,4.002,1.124,6.342,0.682
	C484.247,418.244,489.453,412.053,489.453,405.631z M497.777,363.764c0.62-3.93-2.196-6.628-6.258-5.996l-10.804,1.68
	c-4.062,0.632-7.894,4.364-8.514,8.294l-1.65,10.451c-0.621,3.93,2.196,6.628,6.258,5.996l10.804-1.68
	c4.062-0.632,7.894-4.364,8.514-8.294L497.777,363.764z M494.996,364.197l-1.65,10.451c-0.386,2.445-2.781,4.779-5.309,5.172
	l-10.804,1.68c-2.528,0.393-4.288-1.294-3.902-3.739l1.65-10.451c0.386-2.445,2.781-4.779,5.309-5.172l10.804-1.68
	C493.622,360.065,495.382,361.752,494.996,364.197z M485.187,364.499L485.187,364.499c-3.7,0.575-7.157,3.943-7.722,7.522
	c-0.565,3.579,1.976,6.013,5.675,5.438c3.7-0.575,7.156-3.943,7.721-7.522C491.427,366.358,488.886,363.924,485.187,364.499z
	 M492.037,362.103c-0.85,0.132-1.644,0.906-1.774,1.728c-0.13,0.822,0.454,1.381,1.304,1.249c0.85-0.132,1.644-0.906,1.774-1.728
	C493.471,362.53,492.887,361.971,492.037,362.103z M305.223,421.932l-18.145,88.581h59.853l3.853-64.933l-12.017-26.746
	C332.574,420.714,319.895,421.604,305.223,421.932z M484.632,409.649l-2.895-0.82l0,0c0,0-0.115-0.052-0.298-0.017
	c-0.183,0.034-0.345,0.165-0.398,0.273c-0.053,0.107-0.935,1.388-1.123,1.642c-0.189,0.254-0.407,0.295-0.548,0.281
	c-0.142-0.015-0.843-0.1-2.258-0.776s-2.464-2.163-2.677-2.448c-0.212-0.284-0.088-0.52-0.029-0.596
	c0.059-0.076,0.702-0.864,0.943-1.352c0.242-0.488,0.059-0.819,0.059-0.819s-0.973-2.162-1.161-2.522
	c-0.189-0.359-0.507-0.335-0.507-0.335s-0.619,0.035-1.103,0.191c-0.483,0.156-1.279,0.979-1.668,2.09s-0.483,2.579,0.507,4.09
	c0.652,0.995,1.512,2.057,2.554,2.939c2.12,1.793,4.666,2.726,7.617,2.346c1.143-0.147,2.269-1.093,2.77-1.83
	c0.501-0.738,0.489-1.73,0.492-1.967C484.912,409.783,484.723,409.675,484.632,409.649z M202.018,410.925
	c-0.039-0.353-0.18-2.097,0.731-3.229c0.464-0.576,1.106-0.899,1.91-0.962c0.851-0.065,2.083-0.136,3.54-0.204
	c-3.413-0.261-5.524-0.829-6.283-1.694c-0.25-0.285-0.377-0.616-0.368-0.962c-0.042-0.364-0.171-2.108,0.97-3.481
	c0.854-1.026,2.18-1.576,3.941-1.635c0.736-0.024,1.423-0.068,2.086-0.134v-5.715c-0.361,0.021-0.738,0.039-1.132,0.051
	c-5.182,0.163-6.485-1.734-6.787-2.883c-0.489-1.864,0.931-4.03,3.533-5.39c0.01-0.006,0.021-0.011,0.031-0.016
	c0.001-0.001,0.002-0.001,0.003-0.001c0.003-0.002,0.007-0.003,0.01-0.005c0.122-0.054,1.927-0.843,4.341-1.459v-19.218
	l-36.426,12.303v59.191l36.426,3.608v-16.779c-4.548-0.873-6.812-2.054-6.733-3.513c-0.018-1.292,0.592-3.738,3.043-3.928
	l1.263-0.099c0.95-0.075,2.072-0.163,3.233-0.247c0.018-0.001,0.036-0.003,0.054-0.004c-0.042-0.008-0.084-0.015-0.126-0.022
	C204.418,413.623,201.976,412.421,202.018,410.925z M375.876,239.52l-5.606,4.55l-4.845-4.554l-2.422,3.488l7.267,5.813l5.606-6.166
	l1.191-1.31l9.675-10.642l-9.675,7.853L375.876,239.52z M375.876,183.122l-5.606,4.55l-4.845-4.554l-2.422,3.488l7.267,5.814
	l5.606-6.166l1.191-1.311l9.675-10.642l-9.675,7.854L375.876,183.122z M375.876,212.093l-5.606,4.55l-4.845-4.553l-2.422,3.488
	l7.267,5.814l5.606-6.166l1.191-1.311l9.675-10.643l-9.675,7.853L375.876,212.093z M375.876,156.186l-5.606,4.55l-4.845-4.554
	l-2.422,3.488l7.267,5.814l5.606-6.166l1.191-1.311l9.675-10.642l-9.675,7.854L375.876,156.186z M84.562,473.467
	c0.02-3.337,3.33-7.087,5.831-10.448c-1.854-5.507-5.471-10.243-10.281-13.316c-0.149-0.095-0.288-0.204-0.439-0.296
	c0.042,0.183,0.096,0.404,0.156,0.646c0.984,3.968,4.141,15.428,0.494,19.844c-4.209,5.096-11.59-1.859-7.464-7.497
	c1.263-1.727,1.997-4.116,2.411-6.598c0.494-2.958,0.534-6.048,0.457-8.315c-3.418-1.279-7.247-1.795-11.352-1.324
	c0.397,3.008,0.947,8.062,1.039,13.491c0.146,8.642-8.773,9.429-9.464,1.883c-0.41-4.475,1.648-10.314,3.39-14.326
	c-2.759,0.831-5.609,2.103-8.515,3.881c-2.787,1.705-5.238,3.661-7.391,5.767c0.296,0.021,0.635,0.023,1.025,0
	c2.712-0.16,10.192,7.823,6.297,11.104c-3.63,3.057-10.022,0.266-11.744-6.057c-9.929,13.234-10.565,29.081-8.269,28.59
	c1.892-0.405,3.647-0.164,7.041,3.093c1.398-2.578,3.08-6.054,5.773-9.47c6.366-8.075,14.113-2.597,8.26,1.872
	c-4.177,3.189-7.842,8.905-9.442,12.646c1.015,1.218,2.128,2.604,3.359,4.182c1.297,1.664,2.737,3.029,4.275,4.121
	c0.388-0.663,0.66-1.664,0.761-3.099c0.354-5.02,2.837-9.352,5.835-12.433c2.685-2.759,5.783-4.517,8.152-4.825
	c5.015-0.652-0.984,4.407-6.114,9.7c-2.005,2.069-3.134,4.955-3.731,7.821c-0.371,1.782-0.54,3.555-0.578,5.12
	c0.189,0.07,0.382,0.123,0.573,0.187c3.396,1.127,7.013,1.253,10.51,0.531c0.02-1.981,0.165-5.494,0.795-10.101
	c1.005-7.349,10.669-13.331,13.422-8.604s-2.534,3.619-6.847,8.038c-2.231,2.285-3.635,6.414-4.472,9.869
	c4.473-1.545,8.567-4.444,11.496-8.293c5.87-7.713,10.089-8.311,11.926-8.081c-4.562-5.802-10.92-11.171-19.766-14.528
	c-26.091-9.901-39.939,7.479-40.075,7.655c-0.202,0.26-0.576,0.308-0.835,0.106c-0.26-0.201-0.308-0.574-0.107-0.834
	c0.142-0.185,14.497-18.264,41.44-8.041c9.169,3.479,15.723,9.068,20.409,15.089c0.073-2.025,0.142-7.953-0.793-19.316
	C90.241,477.027,84.531,478.507,84.562,473.467z M148.773,444.336c1.118,5.296-3.542,11.07-8.167,11.232
	c-4.962,0.173-1.518-9.75,1.031-11.297c0.367-0.222,0.676-0.431,0.938-0.625c-2.867-0.101-5.943,0.081-9.22,0.636
	c-3.417,0.579-6.566,1.464-9.445,2.589c3.304,1.63,7.674,4.296,9.206,7.55c2.583,5.488-5.915,10.401-9.463,4.51
	c-2.229-3.701-3.879-7.431-4.798-9.693c-3.957,2.188-7.241,4.87-9.824,7.814c1.648,2.885,4.834,7.411,8.979,8.263
	c6.177,1.269,2.387,10.441-3.636,9.587c-5.537-0.785-7.444-11.573-8.136-14.154c-3.305,5.127-4.681,10.701-4.011,15.679
	c3.72,0.732,8.347,1.23,9.787,3.458c2.175,3.365-3.681,5.855-7.057,4.164c3.719,7.653,6.224,11.594,7.298,13.156
	c2.056-6.952,5.441-14.645,11.005-21.887c8.298-10.803,17.343-16.009,23.469-18.474c6.664-2.682,11.307-2.795,11.501-2.798
	c0.004-0.001,0.007-0.001,0.011-0.001c0.324,0,0.589,0.26,0.595,0.585c0.006,0.328-0.255,0.6-0.583,0.605
	c-0.184,0.004-18.52,0.593-34.048,20.807c-5.437,7.078-8.757,14.594-10.781,21.394c1.363-1.22,5.427-3.757,14.605-2.063
	c4.321,0.797,9.303,0.246,14.054-1.446c-2.238-1.809-5.282-3.724-8.297-3.898c-5.83-0.336-10.196,3.634-9.691-1.22
	s11.897-6.732,15.949-2.411c2.539,2.709,4.169,4.979,5.031,6.297c3.706-1.742,7.139-4.192,9.837-7.243
	c-1.829-2.68-5.053-5.791-9.458-6.06c-6.95-0.424-14.595-0.161-9.728-2.783s15.486-2.926,20.154,3.054
	c0.704,0.902,1.38,1.409,2.017,1.617c0.942-1.671,1.678-3.466,2.156-5.375c0.454-1.81,0.882-3.42,1.292-4.857
	c-3.058-1.536-8.847-3.138-14.028-2.731c-7.26,0.57-2.505-7.834,6.761-6.296c3.92,0.651,6.941,1.958,9.318,2.836
	c1.718-4.258,3.222-5.49,5.126-6.373C170.832,457.416,163.498,447.164,148.773,444.336z"></path>
</svg>